# Blender 4.0.2
# www.blender.org
o Med_Kit
v -0.128800 0.091845 -0.088141
v -0.138779 0.081866 -0.088141
v -0.128800 0.081866 -0.098120
v -0.128800 0.091845 -0.046981
v -0.138779 0.081866 -0.046981
v -0.128800 0.091845 0.088141
v -0.128800 0.081866 0.098120
v -0.138779 0.081866 0.088141
v -0.128800 0.009572 -0.098120
v -0.138779 0.009572 -0.088141
v -0.128800 -0.000407 -0.088141
v 0.128800 0.091845 -0.088141
v 0.128800 0.091845 -0.046981
v 0.138779 0.081866 -0.088141
v 0.138779 0.081866 -0.046981
v 0.138779 0.081866 0.046981
v 0.128800 0.091845 0.046981
v 0.138779 0.081866 0.088141
v -0.128800 0.091845 0.046981
v -0.138779 0.081866 0.046981
v 0.128800 0.091845 0.088141
v 0.128800 0.081866 0.098120
v 0.128800 0.081866 -0.098120
v -0.138779 0.009572 -0.046981
v -0.138779 0.009572 0.046981
v -0.138779 0.009572 0.088141
v -0.128800 0.009572 0.098120
v 0.128800 0.009572 0.098120
v 0.138779 0.009572 0.088141
v 0.138779 0.009572 0.046981
v 0.138779 0.009572 -0.046981
v 0.138779 0.009572 -0.088141
v 0.128800 0.009572 -0.098120
v -0.128800 -0.000407 -0.046981
v -0.128800 -0.000407 0.046981
v 0.128800 -0.000407 -0.046981
v -0.128800 -0.000407 0.088141
v 0.128800 -0.000407 0.088141
v 0.128800 -0.000407 0.046981
v 0.128800 -0.000407 -0.088141
vn -0.3416 0.8756 -0.3416
vn -0.2418 0.6861 -0.6861
vn -0.6861 0.6861 -0.2418
vn -0.7071 0.7071 -0.0000
vn -0.3827 0.9239 -0.0000
vn -0.3416 0.8756 0.3416
vn -0.6861 0.6861 0.2418
vn -0.2418 0.6861 0.6861
vn -0.2418 -0.6861 -0.6861
vn -0.3416 -0.8756 -0.3416
vn -0.6861 -0.6861 -0.2418
vn 0.3416 0.8756 -0.3416
vn 0.3827 0.9239 -0.0000
vn 0.6861 0.6861 -0.2418
vn 0.7071 0.7071 -0.0000
vn 0.6861 0.6861 0.2418
vn 0.3416 0.8756 0.3416
vn 0.2418 0.6861 0.6861
vn 0.2418 0.6861 -0.6861
vn -0.7071 -0.0000 -0.7071
vn -0.9239 -0.0000 -0.3827
vn -1.0000 -0.0000 -0.0000
vn -0.9239 -0.0000 0.3827
vn -0.7071 -0.0000 0.7071
vn -0.0000 -0.0000 1.0000
vn 0.7071 -0.0000 0.7071
vn 0.9239 -0.0000 0.3827
vn 1.0000 -0.0000 -0.0000
vn 0.9239 -0.0000 -0.3827
vn 0.7071 -0.0000 -0.7071
vn -0.0000 -0.0000 -1.0000
vn -0.7071 -0.7071 -0.0000
vn -0.3827 -0.9239 -0.0000
vn 0.3827 -0.9239 -0.0000
vn -0.3416 -0.8756 0.3416
vn -0.6861 -0.6861 0.2418
vn -0.2418 -0.6861 0.6861
vn 0.3416 -0.8756 0.3416
vn 0.2418 -0.6861 0.6861
vn 0.6861 -0.6861 0.2418
vn 0.7071 -0.7071 -0.0000
vn 0.3416 -0.8756 -0.3416
vn 0.6861 -0.6861 -0.2418
vn 0.2418 -0.6861 -0.6861
vt 0.994757 0.455663
vt 0.996562 0.455866
vt 0.995074 0.457436
vt 0.989362 0.457728
vt 0.989305 0.455809
vt 0.971233 0.455726
vt 0.970933 0.457503
vt 0.969430 0.455950
vt 0.969500 0.496003
vt 0.971305 0.495800
vt 0.970988 0.497573
vt 0.994764 0.421128
vt 0.989307 0.421126
vt 0.995025 0.419319
vt 0.989322 0.419239
vt 0.976633 0.419214
vt 0.976683 0.421123
vt 0.970928 0.419445
vt 0.976688 0.455822
vt 0.976642 0.457733
vt 0.971230 0.421220
vt 0.969427 0.420998
vt 0.996558 0.420895
vt 0.987406 0.316379
vt 0.997138 0.316379
vt 0.997138 0.318279
vt 0.987406 0.318279
vt 0.987406 0.323820
vt 0.997138 0.323820
vt 0.987406 0.336468
vt 0.997138 0.336468
vt 0.997137 0.342010
vt 0.987405 0.342009
vt 0.997137 0.343909
vt 0.987405 0.343909
vt 0.987180 0.144798
vt 0.996912 0.144802
vt 0.996896 0.179479
vt 0.987164 0.179475
vt 0.955044 0.488268
vt 0.955044 0.498000
vt 0.953144 0.498000
vt 0.953144 0.488268
vt 0.947604 0.488268
vt 0.947604 0.498000
vt 0.934955 0.488268
vt 0.934955 0.498000
vt 0.929415 0.498000
vt 0.929415 0.488268
vt 0.927515 0.498000
vt 0.927515 0.488268
vt 0.984311 0.346088
vt 0.994043 0.346100
vt 0.993999 0.380777
vt 0.984267 0.380765
vt 0.976700 0.497865
vt 0.976757 0.495946
vt 0.989420 0.497870
vt 0.989374 0.495959
vt 0.976755 0.461263
vt 0.994829 0.495863
vt 0.995129 0.497640
vt 0.996631 0.496087
vt 0.994832 0.461358
vt 0.996635 0.461135
vt 0.995134 0.459582
vt 0.989429 0.459351
vt 0.989378 0.461260
vt 0.976739 0.459377
vt 0.971298 0.461265
vt 0.971037 0.459456
vt 0.969504 0.461032
s 1
f 1/1/1 3/2/2 2/3/3
f 2/3/3 5/4/4 4/5/5
f 6/6/6 8/7/7 7/8/8
f 9/9/9 11/10/10 10/11/11
f 4/5/5 1/1/1 2/3/3
f 12/12/12 1/1/1 4/5/5
f 4/5/5 13/13/13 12/12/12
f 14/14/14 12/12/12 13/13/13
f 13/13/13 15/15/15 14/14/14
f 16/16/15 15/15/15 13/13/13
f 13/13/13 17/17/13 16/16/15
f 17/17/13 13/13/13 4/5/5
f 18/18/16 16/16/15 17/17/13
f 4/5/5 19/19/5 17/17/13
f 19/19/5 4/5/5 5/4/4
f 5/4/4 20/20/4 19/19/5
f 17/17/13 19/19/5 6/6/6
f 17/17/13 21/21/17 18/18/16
f 6/6/6 21/21/17 17/17/13
f 21/21/17 22/22/18 18/18/16
f 22/22/18 21/21/17 6/6/6
f 6/6/6 7/8/8 22/22/18
f 12/12/12 14/14/14 23/23/19
f 12/12/12 23/23/19 3/2/2
f 3/2/2 1/1/1 12/12/12
f 3/24/20 9/25/20 10/26/21
f 10/26/21 2/27/21 3/24/20
f 5/28/22 2/27/21 10/26/21
f 10/26/21 24/29/22 5/28/22
f 20/30/22 5/28/22 24/29/22
f 24/29/22 25/31/22 20/30/22
f 20/30/22 25/31/22 26/32/23
f 26/32/23 8/33/23 20/30/22
f 27/34/24 7/35/24 8/33/23
f 8/33/23 26/32/23 27/34/24
f 28/36/25 22/37/25 7/38/25
f 7/38/25 27/39/25 28/36/25
f 22/40/26 28/41/26 29/42/27
f 29/42/27 18/43/27 22/40/26
f 16/44/28 18/43/27 29/42/27
f 29/42/27 30/45/28 16/44/28
f 15/46/28 16/44/28 30/45/28
f 30/45/28 31/47/28 15/46/28
f 15/46/28 31/47/28 32/48/29
f 32/48/29 14/49/29 15/46/28
f 33/50/30 23/51/30 14/49/29
f 14/49/29 32/48/29 33/50/30
f 9/52/31 3/53/31 23/54/31
f 23/54/31 33/55/31 9/52/31
f 24/56/32 10/11/11 11/10/10
f 11/10/10 34/57/33 24/56/32
f 25/58/32 24/56/32 34/57/33
f 34/57/33 35/59/33 25/58/32
f 36/60/34 34/57/33 11/10/10
f 35/59/33 34/57/33 36/60/34
f 25/58/32 35/59/33 37/61/35
f 37/61/35 26/62/36 25/58/32
f 26/62/36 37/61/35 27/63/37
f 27/63/37 37/61/35 38/64/38
f 38/64/38 37/61/35 35/59/33
f 38/64/38 28/65/39 27/63/37
f 28/65/39 38/64/38 29/66/40
f 30/67/41 29/66/40 38/64/38
f 35/59/33 39/68/34 38/64/38
f 38/64/38 39/68/34 30/67/41
f 36/60/34 39/68/34 35/59/33
f 31/69/41 30/67/41 39/68/34
f 39/68/34 36/60/34 31/69/41
f 31/69/41 36/60/34 40/70/42
f 11/10/10 40/70/42 36/60/34
f 40/70/42 32/71/43 31/69/41
f 32/71/43 40/70/42 33/72/44
f 33/72/44 40/70/42 11/10/10
f 11/10/10 9/9/9 33/72/44
f 8/7/7 6/6/6 19/19/5
f 19/19/5 20/20/4 8/7/7
