# Blender 4.1.1
# www.blender.org
o SM_Cabinet.001
v 0.246951 0.760648 -0.586749
v -0.253049 0.061826 -0.586749
v -0.253049 0.760648 -0.586749
v 0.246951 0.061826 -0.586749
v -0.253049 0.760649 0.586830
v 0.246951 0.061826 0.586830
v 0.246951 0.760649 0.586830
v -0.253049 0.061826 0.586830
v 0.246951 0.096826 0.551830
v 0.246951 0.096826 -0.551749
v 0.246951 0.725648 -0.551749
v 0.246951 0.725648 0.551830
v 0.261093 0.052039 0.600973
v -0.253050 0.052039 0.600973
v -0.253050 0.000000 0.600973
v 0.261093 0.000000 0.600973
v 0.261093 0.052039 -0.600891
v -0.253049 -0.000000 -0.600891
v -0.253049 0.052039 -0.600891
v 0.261093 -0.000000 -0.600891
v -0.227451 0.725648 -0.551749
v -0.227451 0.096826 -0.551749
v -0.227451 0.725648 0.551830
v -0.227451 0.096826 0.551830
v 0.216160 0.725648 0.010067
v -0.227451 0.725648 0.010067
v 0.216160 0.096826 0.010067
v -0.227451 0.096826 0.010067
v -0.227451 0.725648 -0.009933
v 0.216160 0.725648 -0.009933
v 0.216160 0.096826 -0.009933
v -0.227451 0.096826 -0.009933
v -0.227451 0.413930 0.551830
v 0.213080 0.413930 -0.551749
v -0.227451 0.413930 -0.551749
v 0.213080 0.413930 0.551830
v -0.227451 0.393930 0.551830
v 0.213080 0.393930 -0.551749
v 0.213080 0.393930 0.551830
v -0.227451 0.393930 -0.551749
v 0.262951 0.778648 0.603260
v 0.262951 0.778648 -0.603179
v -0.267682 0.778649 0.603260
v -0.267682 0.778649 -0.603179
v 0.271700 0.770735 -0.611587
v -0.275749 0.760648 -0.611587
v -0.275749 0.770735 -0.611588
v 0.271700 0.760648 -0.611587
v -0.275749 0.760649 0.611587
v -0.275749 0.770735 0.611588
v 0.271699 0.770735 0.611587
v 0.271699 0.760649 0.611587
vn -0.0000 -0.0000 -1.0000
vn -0.0000 -0.0000 1.0000
vn 1.0000 -0.0000 -0.0000
vn -0.0000 0.8223 0.5691
vn -0.0000 0.8223 -0.5691
vn 0.5691 0.8223 -0.0000
vn -0.0000 1.0000 -0.0000
vn -0.0000 -1.0000 -0.0000
vn -1.0000 -0.0000 -0.0000
vn -0.0000 -0.0001 -1.0000
vn -0.0000 -0.0001 1.0000
vn -0.0000 0.7282 -0.6853
vn -0.0000 0.7283 -0.6853
vn 0.6708 0.7416 -0.0000
vn -0.0000 0.7249 0.6889
vn -0.7003 0.7139 -0.0000
vt 0.767188 0.353272
vt 0.993745 0.036626
vt 0.993745 0.353272
vt 0.767188 0.036627
vt 0.008867 0.353273
vt 0.235424 0.036627
vt 0.235424 0.353272
vt 0.008867 0.036627
vt 0.251283 0.052486
vt 0.751329 0.052486
vt 0.751329 0.337413
vt 0.251283 0.337413
vt 0.834015 0.986619
vt 0.601051 0.986617
vt 0.601052 0.963038
vt 0.834016 0.963038
vt 0.599969 0.947848
vt 0.832932 0.924268
vt 0.832933 0.947848
vt 0.599968 0.924269
vt 0.229016 0.005254
vt 0.773595 0.005254
vt 0.229016 0.028834
vt 0.773595 0.028834
vt 0.827606 0.994413
vt 0.601050 0.994410
vt 0.606378 0.955641
vt 0.832934 0.955641
vt 0.695486 0.466603
vt 0.560383 0.364679
vt 0.695486 0.364679
vt 0.560383 0.466604
vt 0.835284 0.364096
vt 0.700182 0.466021
vt 0.700181 0.364096
vt 0.835284 0.466021
vt 0.596353 0.672674
vt 0.698278 0.909779
vt 0.596353 0.909779
vt 0.698278 0.672674
vt 0.560864 0.613108
vt 0.689680 0.668483
vt 0.560864 0.668483
vt 0.689680 0.613108
vt 0.558710 0.472082
vt 0.795814 0.472082
vt 0.558710 0.607184
vt 0.795814 0.607184
vt 0.802216 0.919821
vt 0.706906 0.919821
vt 0.802216 0.784719
vt 0.706906 0.784719
vt 0.901822 0.919821
vt 0.806512 0.919821
vt 0.806512 0.784719
vt 0.901822 0.784719
vt 0.994504 0.709222
vt 0.899856 0.472117
vt 0.994504 0.472117
vt 0.899856 0.709222
vt 0.800912 0.709222
vt 0.895560 0.472117
vt 0.895560 0.709222
vt 0.800912 0.472117
vt 0.970823 0.366835
vt 0.845840 0.441257
vt 0.845840 0.366835
vt 0.970823 0.441257
vt 0.553064 0.990473
vt 0.014892 0.994909
vt 0.008484 0.990473
vt 0.546656 0.994909
vt 0.008484 0.966892
vt 0.553064 0.966892
vt 0.776133 0.612572
vt 0.704788 0.779350
vt 0.704788 0.612572
vt 0.776133 0.779350
vt 0.571585 0.937318
vt 0.025407 0.937319
vt 0.571585 0.697354
vt 0.025407 0.697354
vt 0.021123 0.941737
vt 0.016550 0.693441
vt 0.021123 0.693202
vt 0.016549 0.941497
vt 0.575596 0.688626
vt 0.575837 0.693202
vt 0.021360 0.688626
vt 0.575837 0.941737
vt 0.580413 0.693442
vt 0.580413 0.941497
vt 0.575596 0.946313
vt 0.021360 0.946313
vt 0.005294 0.930281
vt 0.005294 0.703725
vt 0.591633 0.930281
vt 0.591632 0.703725
vt 0.032615 0.957529
vt 0.564378 0.957529
vt 0.032614 0.678339
vt 0.564378 0.678339
s 0
f 1/1/1 2/2/1 3/3/1
f 2/2/1 1/1/1 4/4/1
f 5/5/2 6/6/2 7/7/2
f 6/6/2 5/5/2 8/8/2
f 4/4/3 9/9/3 6/6/3
f 9/9/3 4/4/3 10/10/3
f 4/4/3 1/1/3 11/11/3
f 4/4/3 11/11/3 10/10/3
f 7/7/3 11/11/3 1/1/3
f 11/11/3 7/7/3 12/12/3
f 6/6/3 12/12/3 7/7/3
f 12/12/3 6/6/3 9/9/3
f 13/13/2 14/14/2 15/15/2
f 13/13/2 15/15/2 16/16/2
f 17/17/1 18/18/1 19/19/1
f 18/18/1 17/17/1 20/20/1
f 16/21/3 20/22/3 13/23/3
f 17/24/3 13/23/3 20/22/3
f 14/14/4 6/25/4 8/26/4
f 14/14/4 13/13/4 6/25/4
f 19/19/5 4/27/5 17/17/5
f 4/27/5 19/19/5 2/28/5
f 13/23/6 4/4/6 6/6/6
f 4/4/6 13/23/6 17/24/6
f 21/29/2 10/30/2 11/31/2
f 10/30/2 21/29/2 22/32/2
f 23/33/1 9/34/1 24/35/1
f 9/34/1 23/33/1 12/36/1
f 24/37/7 10/38/7 22/39/7
f 10/38/7 24/37/7 9/40/7
f 23/41/8 11/42/8 12/43/8
f 11/42/8 23/41/8 21/44/8
f 24/45/3 22/46/3 23/47/3
f 21/48/3 23/47/3 22/46/3
f 25/49/2 26/50/2 27/51/2
f 26/50/2 28/52/2 27/51/2
f 29/53/1 30/54/1 31/55/1
f 29/53/1 31/55/1 32/56/1
f 25/49/3 31/55/3 30/54/3
f 31/55/3 25/49/3 27/51/3
f 33/57/7 34/58/7 35/59/7
f 34/58/7 33/57/7 36/60/7
f 37/61/8 38/62/8 39/63/8
f 38/62/8 37/61/8 40/64/8
f 34/58/3 36/60/3 39/63/3
f 34/58/3 39/63/3 38/62/3
f 3/65/9 8/66/9 5/67/9
f 8/66/9 3/65/9 2/68/9
f 14/69/9 2/70/9 19/71/9
f 2/70/9 14/69/9 8/72/9
f 18/73/9 14/69/9 19/71/9
f 14/69/9 18/73/9 15/74/9
f 15/75/8 20/76/8 16/77/8
f 20/76/8 15/75/8 18/78/8
f 41/79/7 42/80/7 43/81/7
f 44/82/7 43/81/7 42/80/7
f 45/83/10 46/84/10 47/85/10
f 46/84/1 45/83/1 48/86/1
f 47/85/9 49/87/9 50/88/9
f 49/87/9 47/85/9 46/89/9
f 51/90/11 50/88/11 49/91/11
f 51/90/2 49/91/2 52/92/2
f 45/83/3 51/90/3 52/93/3
f 45/83/3 52/93/3 48/94/3
f 46/84/8 48/86/8 1/95/8
f 46/84/8 1/95/8 3/96/8
f 47/85/12 42/80/12 45/83/12
f 42/80/13 47/85/13 44/82/13
f 42/80/14 41/79/14 51/90/14
f 42/80/14 51/90/14 45/83/14
f 50/88/15 41/79/15 43/81/15
f 50/88/15 51/90/15 41/79/15
f 7/97/8 49/91/8 5/98/8
f 49/91/8 7/97/8 52/92/8
f 52/93/8 1/99/8 48/94/8
f 1/99/8 52/93/8 7/100/8
f 3/101/8 5/102/8 49/87/8
f 3/101/8 49/87/8 46/89/8
f 50/88/16 44/82/16 47/85/16
f 44/82/16 50/88/16 43/81/16
