# Blender 4.0.2
# www.blender.org
o SM_Ceiling06
v -0.007595 0.053700 0.048678
v -0.000312 0.053700 0.054648
v -0.007542 0.053700 0.054648
v -0.000221 0.053700 0.017718
v -0.013653 0.053700 0.037383
v -0.016259 0.053700 0.040040
v -0.013630 0.053700 -0.012936
v 0.042550 0.053700 -0.012936
v 0.042560 0.053700 0.017718
vn -0.0000 -1.0000 -0.0000
vt -2.531864 0.763508
vt -2.929862 0.277928
vt -2.929845 0.759924
vt -0.467861 0.271899
vt -1.778909 1.167329
vt -1.956022 1.341071
vt 1.575712 1.165794
vt 1.575711 -2.579525
vt -0.467862 -2.580194
s 0
f 1/1/1 2/2/1 3/3/1
f 4/4/1 2/2/1 1/1/1
f 4/4/1 1/1/1 5/5/1
f 1/1/1 6/6/1 5/5/1
f 4/4/1 5/5/1 7/7/1
f 8/8/1 4/4/1 7/7/1
f 8/8/1 9/9/1 4/4/1
o SM_Ceiling07
v 0.038127 0.053700 0.035575
v -0.000221 0.053700 0.035575
v 0.038127 0.053700 0.017507
v -0.000221 0.053700 0.017507
vn -0.0000 -1.0000 -0.0000
vt -1.658358 -2.284665
vt -1.658357 0.271899
vt -0.453802 -2.284665
vt -0.453801 0.271899
s 0
f 10/10/2 11/11/2 12/12/2
f 12/12/2 11/11/2 13/13/2
o SM_Ceiling08
v 0.038127 0.053700 0.073824
v -0.007369 0.053700 0.073824
v -0.000312 0.053700 0.054648
v -0.007542 0.053700 0.054648
v 0.038127 0.053700 0.035575
v -0.000221 0.053700 0.035575
vn -0.0000 -1.0000 -0.0000
vt -4.208265 -2.284664
vt -4.208265 0.748412
vt -2.929862 0.277928
vt -2.929845 0.759924
vt -1.658358 -2.284665
vt -1.658357 0.271899
s 0
f 14/14/3 15/15/3 16/16/3
f 17/17/3 16/16/3 15/15/3
f 18/18/3 16/16/3 19/19/3
f 16/16/3 18/18/3 14/14/3
o SM_Ceiling09
v -0.022484 0.053700 0.035201
v -0.022413 0.053700 0.042506
v -0.035594 0.053700 0.035165
v -0.035615 0.053700 0.073824
v -0.018718 0.053700 0.042547
v -0.007595 0.053700 0.048678
v -0.016259 0.053700 0.040040
v -0.007369 0.053700 0.073824
vn -0.0000 -1.0000 -0.0000
vt -1.633390 1.756083
vt -2.120425 1.751373
vt -1.631015 2.630105
vt -4.208265 2.631450
vt -2.123129 1.504997
vt -2.531864 0.763507
vt -1.956022 1.341071
vt -4.208265 0.748412
s 0
f 20/20/4 21/21/4 22/22/4
f 23/23/4 22/22/4 21/21/4
f 21/21/4 24/24/4 25/25/4
f 24/24/4 26/26/4 25/25/4
f 23/23/4 25/25/4 27/27/4
f 25/25/4 23/23/4 21/21/4
o SM_Ceiling10
v -0.013609 0.053700 0.015797
v -0.013653 0.053700 0.037383
v -0.022484 0.053700 0.035201
v -0.018718 0.053700 0.042547
v -0.022413 0.053700 0.042506
v -0.035584 0.053700 0.015904
v -0.035594 0.053700 0.035165
vn -0.0000 -1.0000 -0.0000
vt -0.339825 1.164386
vt -1.778909 1.167329
vt -1.633390 1.756083
vt -2.123129 1.504997
vt -2.120425 1.751373
vt -0.346942 2.629435
vt -1.631015 2.630105
s 0
f 28/28/5 29/29/5 30/30/5
f 31/31/5 32/32/5 30/30/5
f 31/31/5 30/30/5 29/29/5
f 30/30/5 33/33/5 28/28/5
f 30/30/5 34/34/5 33/33/5
o SM_Ceiling11
v -0.013609 0.053700 0.015797
v -0.035569 0.053700 -0.012936
v -0.013633 0.053700 -0.021954
v -0.035584 0.053700 0.015904
v -0.027492 0.053700 -0.021954
v -0.048349 0.053700 -0.029777
v -0.027492 0.053700 -0.029777
v -0.048349 0.053700 -0.012936
vn -0.0000 -1.0000 -0.0000
vt -0.339825 1.164386
vt 1.575712 2.628431
vt 2.176930 1.166043
vt -0.346942 2.629435
vt 2.176930 2.089976
vt 2.698469 3.480402
vt 2.698469 2.089975
vt 1.575712 3.480402
s 0
f 35/35/6 36/36/6 37/37/6
f 36/36/6 35/35/6 38/38/6
f 37/37/6 36/36/6 39/39/6
f 36/36/6 40/40/6 41/41/6
f 40/40/6 36/36/6 42/42/6
f 39/39/6 36/36/6 41/41/6
o SM_Ceiling12
v 0.042407 0.053700 -0.038625
v 0.046869 0.053700 -0.072714
v 0.046869 0.053700 -0.038625
v -0.013630 0.053700 -0.012936
v 0.042407 0.053700 -0.012936
v -0.013614 0.053700 -0.072714
vn -0.0000 -1.0000 -0.0000
vt 3.288305 -2.569995
vt 5.560916 -2.867469
vt 3.288305 -2.867468
vt 1.575712 1.165794
vt 1.575711 -2.569994
vt 5.560917 1.164720
s 0
f 43/43/7 44/44/7 45/45/7
f 46/46/7 43/43/7 47/47/7
f 43/43/7 46/46/7 48/48/7
f 48/48/7 44/44/7 43/43/7
o SM_Ceiling13
v -0.013633 0.053700 -0.057300
v -0.013633 0.053700 -0.021954
v -0.033822 0.053700 -0.057300
v -0.033822 0.053700 -0.051540
v -0.027492 0.053700 -0.029777
v -0.048349 0.053700 -0.029777
v -0.048349 0.053700 -0.051540
v -0.027492 0.053700 -0.021954
vn -0.0000 -1.0000 -0.0000
vt 4.533333 1.166043
vt 2.176930 1.166043
vt 4.533334 2.511947
vt 4.149292 2.511947
vt 2.698469 2.089975
vt 2.698469 3.480402
vt 4.149293 3.480402
vt 2.176930 2.089976
s 0
f 49/49/8 50/50/8 51/51/8
f 52/52/8 53/53/8 54/54/8
f 52/52/8 54/54/8 55/55/8
f 50/50/8 52/52/8 51/51/8
f 52/52/8 50/50/8 53/53/8
f 53/53/8 50/50/8 56/56/8
o SM_Ceiling14
v -0.048349 0.053700 -0.072714
v -0.033822 0.053700 -0.051540
v -0.048349 0.053700 -0.051540
v -0.033822 0.053700 -0.057300
v -0.013633 0.053700 -0.057300
v -0.013614 0.053700 -0.072714
vn -0.0000 -1.0000 -0.0000
vt 5.560918 3.480402
vt 4.149292 2.511947
vt 4.149293 3.480402
vt 4.533334 2.511947
vt 4.533333 1.166043
vt 5.560917 1.164720
s 0
f 57/57/9 58/58/9 59/59/9
f 60/60/9 58/58/9 57/57/9
f 57/57/9 61/61/9 60/60/9
f 61/61/9 57/57/9 62/62/9
