# Blender 4.0.2
# www.blender.org
o SM_Ceiling01
v 0.024333 0.027000 0.017108
v 0.042192 0.027000 0.017108
v 0.042192 0.027000 0.023569
v 0.038031 0.027000 0.023569
v 0.017210 0.027000 0.013040
v 0.024333 0.027000 0.013040
v 0.017210 0.027000 0.029918
v 0.038043 0.027000 0.029918
vn -0.0000 -1.0000 -0.0000
vt -0.427206 -1.365078
vt -0.427206 -2.555674
vt -0.857978 -2.555674
vt -0.857978 -2.278224
vt -0.156034 -0.890161
vt -0.156034 -1.365078
vt -1.281217 -0.890160
vt -1.281217 -2.279031
s 0
f 1/1/1 2/2/1 3/3/1
f 1/1/1 3/3/1 4/4/1
f 5/5/1 6/6/1 1/1/1
f 5/5/1 1/1/1 7/7/1
f 8/8/1 7/7/1 1/1/1
f 8/8/1 1/1/1 4/4/1
o SM_Ceiling02
v 0.017210 0.027000 0.013040
v 0.001706 0.027000 0.029918
v 0.001706 0.027000 0.012971
v 0.017210 0.027000 0.029918
vn -0.0000 -1.0000 -0.0000
vt -0.156034 -0.890161
vt -1.281217 0.143403
vt -0.151404 0.143403
vt -1.281217 -0.890160
s 0
f 9/9/2 10/10/2 11/11/2
f 10/10/2 9/9/2 12/12/2
o SM_Ceiling03
v 0.015249 0.027000 0.013040
v -0.001445 0.027000 0.000078
v 0.015249 0.027000 0.000078
v 0.001706 0.027000 0.012971
v -0.040850 0.027000 -0.012936
v -0.001444 0.027000 -0.012936
v -0.040879 0.027000 0.042795
v 0.001706 0.027000 0.042746
vn -0.0000 -1.0000 -0.0000
vt -0.156034 -0.759434
vt 0.708148 0.353490
vt 0.708148 -0.759434
vt -0.151404 0.143403
vt 1.575712 2.980490
vt 1.575712 0.353385
vt -2.139669 2.982429
vt -2.136383 0.143403
s 0
f 13/13/3 14/14/3 15/15/3
f 14/14/3 13/13/3 16/16/3
f 14/14/3 17/17/3 18/18/3
f 17/17/3 14/14/3 19/19/3
f 19/19/3 16/16/3 20/20/3
f 16/16/3 19/19/3 14/14/3
o SM_Ceiling04
v -0.007027 0.027000 0.079114
v -0.027615 0.027000 0.073824
v -0.007027 0.027000 0.073824
v -0.027615 0.027000 0.079114
v 0.001706 0.027000 0.042746
v 0.038127 0.027000 0.073824
v -0.035598 0.027000 0.042795
v 0.017210 0.027000 0.029918
v 0.038043 0.027000 0.029918
v 0.001706 0.027000 0.029918
v -0.035615 0.027000 0.073824
vn -0.0000 -1.0000 -0.0000
vt -4.560918 0.725599
vt -4.208265 2.098126
vt -4.208265 0.725598
vt -4.560918 2.098126
vt -2.136383 0.143403
vt -4.208265 -2.284665
vt -2.139669 2.630370
vt -1.281217 -0.890160
vt -1.281217 -2.279031
vt -1.281217 0.143403
vt -4.208265 2.631450
s 0
f 21/21/4 22/22/4 23/23/4
f 22/22/4 21/21/4 24/24/4
f 23/23/4 25/25/4 26/26/4
f 25/25/4 23/23/4 27/27/4
f 23/23/4 22/22/4 27/27/4
f 26/26/4 28/28/4 29/29/4
f 26/26/4 25/25/4 28/28/4
f 28/28/4 25/25/4 30/30/4
f 22/22/4 31/31/4 27/27/4
o SM_Ceiling05
v -0.015327 0.027000 -0.072714
v -0.015343 0.027000 -0.012936
v -0.054155 0.027000 -0.072714
v -0.054155 0.027000 -0.012936
vn -0.0000 -1.0000 -0.0000
vt 5.560917 1.278940
vt 1.575712 1.280014
vt 5.560918 3.867468
vt 1.575712 3.867469
s 0
f 32/32/5 33/33/5 34/34/5
f 33/33/5 35/35/5 34/34/5
o SM_Ceiling06
v -0.007595 0.053700 0.048678
v -0.000312 0.053700 0.054648
v -0.007542 0.053700 0.054648
v -0.000221 0.053700 0.017718
v -0.013653 0.053700 0.037383
v -0.016259 0.053700 0.040040
v -0.013630 0.053700 -0.012936
v 0.042550 0.053700 -0.012936
v 0.042560 0.053700 0.017718
vn -0.0000 -1.0000 -0.0000
vt -2.531864 0.763508
vt -2.929862 0.277928
vt -2.929845 0.759924
vt -0.467861 0.271899
vt -1.778909 1.167329
vt -1.956022 1.341071
vt 1.575712 1.165794
vt 1.575711 -2.579525
vt -0.467862 -2.580194
s 0
f 36/36/6 37/37/6 38/38/6
f 39/39/6 37/37/6 36/36/6
f 39/39/6 36/36/6 40/40/6
f 36/36/6 41/41/6 40/40/6
f 39/39/6 40/40/6 42/42/6
f 43/43/6 39/39/6 42/42/6
f 43/43/6 44/44/6 39/39/6
o SM_Ceiling07
v 0.038127 0.053700 0.035575
v -0.000221 0.053700 0.035575
v 0.038127 0.053700 0.017507
v -0.000221 0.053700 0.017507
vn -0.0000 -1.0000 -0.0000
vt -1.658358 -2.284665
vt -1.658357 0.271899
vt -0.453802 -2.284665
vt -0.453801 0.271899
s 0
f 45/45/7 46/46/7 47/47/7
f 47/47/7 46/46/7 48/48/7
o SM_Ceiling08
v 0.038127 0.053700 0.073824
v -0.007369 0.053700 0.073824
v -0.000312 0.053700 0.054648
v -0.007542 0.053700 0.054648
v 0.038127 0.053700 0.035575
v -0.000221 0.053700 0.035575
vn -0.0000 -1.0000 -0.0000
vt -4.208265 -2.284664
vt -4.208265 0.748412
vt -2.929862 0.277928
vt -2.929845 0.759924
vt -1.658358 -2.284665
vt -1.658357 0.271899
s 0
f 49/49/8 50/50/8 51/51/8
f 52/52/8 51/51/8 50/50/8
f 53/53/8 51/51/8 54/54/8
f 51/51/8 53/53/8 49/49/8
o SM_Ceiling09
v -0.022484 0.053700 0.035201
v -0.022413 0.053700 0.042506
v -0.035594 0.053700 0.035165
v -0.035615 0.053700 0.073824
v -0.018718 0.053700 0.042547
v -0.007595 0.053700 0.048678
v -0.016259 0.053700 0.040040
v -0.007369 0.053700 0.073824
vn -0.0000 -1.0000 -0.0000
vt -1.633390 1.756083
vt -2.120425 1.751373
vt -1.631015 2.630105
vt -4.208265 2.631450
vt -2.123129 1.504997
vt -2.531864 0.763507
vt -1.956022 1.341071
vt -4.208265 0.748412
s 0
f 55/55/9 56/56/9 57/57/9
f 58/58/9 57/57/9 56/56/9
f 56/56/9 59/59/9 60/60/9
f 59/59/9 61/61/9 60/60/9
f 58/58/9 60/60/9 62/62/9
f 60/60/9 58/58/9 56/56/9
o SM_Ceiling10
v -0.013609 0.053700 0.015797
v -0.013653 0.053700 0.037383
v -0.022484 0.053700 0.035201
v -0.018718 0.053700 0.042547
v -0.022413 0.053700 0.042506
v -0.035584 0.053700 0.015904
v -0.035594 0.053700 0.035165
vn -0.0000 -1.0000 -0.0000
vt -0.339825 1.164386
vt -1.778909 1.167329
vt -1.633390 1.756083
vt -2.123129 1.504997
vt -2.120425 1.751373
vt -0.346942 2.629435
vt -1.631015 2.630105
s 0
f 63/63/10 64/64/10 65/65/10
f 66/66/10 67/67/10 65/65/10
f 66/66/10 65/65/10 64/64/10
f 65/65/10 68/68/10 63/63/10
f 65/65/10 69/69/10 68/68/10
o SM_Ceiling11
v -0.013609 0.053700 0.015797
v -0.035569 0.053700 -0.012936
v -0.013633 0.053700 -0.021954
v -0.035584 0.053700 0.015904
v -0.027492 0.053700 -0.021954
v -0.048349 0.053700 -0.029777
v -0.027492 0.053700 -0.029777
v -0.048349 0.053700 -0.012936
vn -0.0000 -1.0000 -0.0000
vt -0.339825 1.164386
vt 1.575712 2.628431
vt 2.176930 1.166043
vt -0.346942 2.629435
vt 2.176930 2.089976
vt 2.698469 3.480402
vt 2.698469 2.089975
vt 1.575712 3.480402
s 0
f 70/70/11 71/71/11 72/72/11
f 71/71/11 70/70/11 73/73/11
f 72/72/11 71/71/11 74/74/11
f 71/71/11 75/75/11 76/76/11
f 75/75/11 71/71/11 77/77/11
f 74/74/11 71/71/11 76/76/11
o SM_Ceiling12
v 0.042407 0.053700 -0.038625
v 0.046869 0.053700 -0.072714
v 0.046869 0.053700 -0.038625
v -0.013630 0.053700 -0.012936
v 0.042407 0.053700 -0.012936
v -0.013614 0.053700 -0.072714
vn -0.0000 -1.0000 -0.0000
vt 3.288305 -2.569995
vt 5.560916 -2.867469
vt 3.288305 -2.867468
vt 1.575712 1.165794
vt 1.575711 -2.569994
vt 5.560917 1.164720
s 0
f 78/78/12 79/79/12 80/80/12
f 81/81/12 78/78/12 82/82/12
f 78/78/12 81/81/12 83/83/12
f 83/83/12 79/79/12 78/78/12
o SM_Ceiling13
v -0.013633 0.053700 -0.057300
v -0.013633 0.053700 -0.021954
v -0.033822 0.053700 -0.057300
v -0.033822 0.053700 -0.051540
v -0.027492 0.053700 -0.029777
v -0.048349 0.053700 -0.029777
v -0.048349 0.053700 -0.051540
v -0.027492 0.053700 -0.021954
vn -0.0000 -1.0000 -0.0000
vt 4.533333 1.166043
vt 2.176930 1.166043
vt 4.533334 2.511947
vt 4.149292 2.511947
vt 2.698469 2.089975
vt 2.698469 3.480402
vt 4.149293 3.480402
vt 2.176930 2.089976
s 0
f 84/84/13 85/85/13 86/86/13
f 87/87/13 88/88/13 89/89/13
f 87/87/13 89/89/13 90/90/13
f 85/85/13 87/87/13 86/86/13
f 87/87/13 85/85/13 88/88/13
f 88/88/13 85/85/13 91/91/13
o SM_Ceiling14
v -0.048349 0.053700 -0.072714
v -0.033822 0.053700 -0.051540
v -0.048349 0.053700 -0.051540
v -0.033822 0.053700 -0.057300
v -0.013633 0.053700 -0.057300
v -0.013614 0.053700 -0.072714
vn -0.0000 -1.0000 -0.0000
vt 5.560918 3.480402
vt 4.149292 2.511947
vt 4.149293 3.480402
vt 4.533334 2.511947
vt 4.533333 1.166043
vt 5.560917 1.164720
s 0
f 92/92/14 93/93/14 94/94/14
f 95/95/14 93/93/14 92/92/14
f 92/92/14 96/96/14 95/95/14
f 96/96/14 92/92/14 97/97/14
