# Blender 4.0.2
# www.blender.org
o SM_Ceiling01
v 0.024333 0.027000 0.017108
v 0.042192 0.027000 0.017108
v 0.042192 0.027000 0.023569
v 0.038031 0.027000 0.023569
v 0.017210 0.027000 0.013040
v 0.024333 0.027000 0.013040
v 0.017210 0.027000 0.029918
v 0.038043 0.027000 0.029918
vn -0.0000 -1.0000 -0.0000
vt -0.427206 -1.365078
vt -0.427206 -2.555674
vt -0.857978 -2.555674
vt -0.857978 -2.278224
vt -0.156034 -0.890161
vt -0.156034 -1.365078
vt -1.281217 -0.890160
vt -1.281217 -2.279031
s 0
f 1/1/1 2/2/1 3/3/1
f 1/1/1 3/3/1 4/4/1
f 5/5/1 6/6/1 1/1/1
f 5/5/1 1/1/1 7/7/1
f 8/8/1 7/7/1 1/1/1
f 8/8/1 1/1/1 4/4/1
o SM_Ceiling02
v 0.017210 0.027000 0.013040
v 0.001706 0.027000 0.029918
v 0.001706 0.027000 0.012971
v 0.017210 0.027000 0.029918
vn -0.0000 -1.0000 -0.0000
vt -0.156034 -0.890161
vt -1.281217 0.143403
vt -0.151404 0.143403
vt -1.281217 -0.890160
s 0
f 9/9/2 10/10/2 11/11/2
f 10/10/2 9/9/2 12/12/2
o SM_Ceiling03
v 0.015249 0.027000 0.013040
v -0.001445 0.027000 0.000078
v 0.015249 0.027000 0.000078
v 0.001706 0.027000 0.012971
v -0.040850 0.027000 -0.012936
v -0.001444 0.027000 -0.012936
v -0.040879 0.027000 0.042795
v 0.001706 0.027000 0.042746
vn -0.0000 -1.0000 -0.0000
vt -0.156034 -0.759434
vt 0.708148 0.353490
vt 0.708148 -0.759434
vt -0.151404 0.143403
vt 1.575712 2.980490
vt 1.575712 0.353385
vt -2.139669 2.982429
vt -2.136383 0.143403
s 0
f 13/13/3 14/14/3 15/15/3
f 14/14/3 13/13/3 16/16/3
f 14/14/3 17/17/3 18/18/3
f 17/17/3 14/14/3 19/19/3
f 19/19/3 16/16/3 20/20/3
f 16/16/3 19/19/3 14/14/3
o SM_Ceiling04
v -0.007027 0.027000 0.079114
v -0.027615 0.027000 0.073824
v -0.007027 0.027000 0.073824
v -0.027615 0.027000 0.079114
v 0.001706 0.027000 0.042746
v 0.038127 0.027000 0.073824
v -0.035598 0.027000 0.042795
v 0.017210 0.027000 0.029918
v 0.038043 0.027000 0.029918
v 0.001706 0.027000 0.029918
v -0.035615 0.027000 0.073824
vn -0.0000 -1.0000 -0.0000
vt -4.560918 0.725599
vt -4.208265 2.098126
vt -4.208265 0.725598
vt -4.560918 2.098126
vt -2.136383 0.143403
vt -4.208265 -2.284665
vt -2.139669 2.630370
vt -1.281217 -0.890160
vt -1.281217 -2.279031
vt -1.281217 0.143403
vt -4.208265 2.631450
s 0
f 21/21/4 22/22/4 23/23/4
f 22/22/4 21/21/4 24/24/4
f 23/23/4 25/25/4 26/26/4
f 25/25/4 23/23/4 27/27/4
f 23/23/4 22/22/4 27/27/4
f 26/26/4 28/28/4 29/29/4
f 26/26/4 25/25/4 28/28/4
f 28/28/4 25/25/4 30/30/4
f 22/22/4 31/31/4 27/27/4
o SM_Ceiling05
v -0.015327 0.027000 -0.072714
v -0.015343 0.027000 -0.012936
v -0.054155 0.027000 -0.072714
v -0.054155 0.027000 -0.012936
vn -0.0000 -1.0000 -0.0000
vt 5.560917 1.278940
vt 1.575712 1.280014
vt 5.560918 3.867468
vt 1.575712 3.867469
s 0
f 32/32/5 33/33/5 34/34/5
f 33/33/5 35/35/5 34/34/5
