# Blender 4.0.2
# www.blender.org
o SM_Floor03
v -0.001588 0.028700 -0.012936
v 0.042407 0.028700 -0.012936
v 0.042407 0.028700 -0.038625
v 0.046869 0.028700 -0.038625
v 0.046869 0.028700 -0.072714
v -0.013633 0.028700 -0.021954
v -0.013630 0.028700 -0.012936
v -0.013633 0.028700 -0.057300
v -0.013614 0.028700 -0.072714
vn -0.0000 1.0000 -0.0000
vt 1.505192 0.225400
vt 1.505191 -2.524273
vt 3.110748 -2.524273
vt 3.110748 -2.803155
vt 5.241322 -2.803156
vt 2.068834 0.978262
vt 1.505192 0.978028
vt 4.277963 0.978261
vt 5.241323 0.977022
s 0
f 1/1/1 2/2/1 3/3/1
f 3/3/1 4/4/1 5/5/1
f 6/6/1 7/7/1 1/1/1
f 6/6/1 1/1/1 8/8/1
f 8/8/1 1/1/1 3/3/1
f 8/8/1 3/3/1 5/5/1
f 8/8/1 5/5/1 9/9/1
o SM_Floor04
v -0.048349 0.028700 -0.072714
v -0.048349 0.028700 -0.051540
v -0.033822 0.028700 -0.051540
v -0.033822 0.028700 -0.057300
v -0.013633 0.028700 -0.057300
v -0.013614 0.028700 -0.072714
vn -0.0000 1.0000 -0.0000
vt 5.241323 3.147973
vt 3.917924 3.147974
vt 3.917924 2.240047
vt 4.277963 2.240047
vt 4.277963 0.978261
vt 5.241323 0.977022
s 0
f 10/10/2 11/11/2 12/12/2
f 13/13/2 10/10/2 12/12/2
f 10/10/2 13/13/2 14/14/2
f 14/14/2 15/15/2 10/10/2
o SM_Floor05
v -0.013633 0.028700 -0.057300
v -0.033822 0.028700 -0.057300
v -0.013633 0.028700 -0.021954
v -0.048349 0.028700 -0.029777
v -0.033822 0.028700 -0.051540
v -0.048349 0.028700 -0.051540
v -0.027492 0.028700 -0.029777
v -0.027492 0.028700 -0.021954
vn -0.0000 1.0000 -0.0000
vt 4.277963 0.978261
vt 4.277963 2.240047
vt 2.068834 0.978262
vt 2.557777 3.147974
vt 3.917924 2.240047
vt 3.917924 3.147974
vt 2.557776 1.844448
vt 2.068834 1.844449
s 0
f 16/16/3 17/17/3 18/18/3
f 19/19/3 20/20/3 21/21/3
f 20/20/3 19/19/3 22/22/3
f 18/18/3 20/20/3 22/22/3
f 20/20/3 18/18/3 17/17/3
f 22/22/3 23/23/3 18/18/3
o SM_Floor06
v -0.035569 0.028700 -0.012936
v -0.048349 0.028700 -0.029777
v -0.040673 0.028700 -0.012936
v -0.048349 0.028700 -0.012936
v -0.027492 0.028700 -0.029777
v -0.027492 0.028700 -0.021954
v -0.013630 0.028700 -0.012936
v -0.013633 0.028700 -0.021954
v -0.013624 0.028700 -0.005306
v -0.013609 0.028700 0.015797
v -0.013610 0.028700 0.014247
v -0.014827 0.028700 0.015803
v -0.035584 0.028700 0.015904
vn -0.0000 1.0000 -0.0000
vt 1.505192 2.349250
vt 2.557777 3.147974
vt 1.505192 2.668244
vt 1.505192 3.147974
vt 2.557776 1.844448
vt 2.068834 1.844449
vt 1.505192 0.978028
vt 2.068834 0.978262
vt 1.028353 0.977678
vt -0.290624 0.976709
vt -0.193739 0.976780
vt -0.290994 1.052843
vt -0.297296 2.350192
s 0
f 24/24/4 25/25/4 26/26/4
f 25/25/4 27/27/4 26/26/4
f 28/28/4 25/25/4 24/24/4
f 29/29/4 28/28/4 24/24/4
f 30/30/4 29/29/4 24/24/4
f 29/29/4 30/30/4 31/31/4
f 30/30/4 24/24/4 32/32/4
f 33/33/4 34/34/4 35/35/4
f 24/24/4 36/36/4 32/32/4
f 36/36/4 34/34/4 32/32/4
f 34/34/4 36/36/4 35/35/4
o SM_Floor07
v -0.022439 0.028700 0.039837
v -0.022413 0.028700 0.042506
v -0.018718 0.028700 0.042547
v -0.016259 0.028700 0.040040
v -0.014581 0.028700 0.038330
v -0.022484 0.028700 0.035201
v -0.013653 0.028700 0.037383
v -0.013632 0.028700 0.027059
v -0.025308 0.028700 0.035193
v -0.014827 0.028700 0.015803
v -0.013609 0.028700 0.015797
v -0.029982 0.028700 0.035180
v -0.035584 0.028700 0.015904
v -0.035594 0.028700 0.035165
vn -0.0000 1.0000 -0.0000
vt -1.793125 1.528622
vt -1.959936 1.527009
vt -1.962471 1.296032
vt -1.805808 1.142350
vt -1.698911 1.037488
vt -1.503341 1.531425
vt -1.639765 0.979468
vt -0.994516 0.978148
vt -1.502861 1.707893
vt -0.290994 1.052843
vt -0.290624 0.976709
vt -1.502067 2.000028
vt -0.297296 2.350192
vt -1.501114 2.350820
s 0
f 37/37/5 38/38/5 39/39/5
f 37/37/5 39/39/5 40/40/5
f 40/40/5 41/41/5 37/37/5
f 42/42/5 41/41/5 43/43/5
f 43/43/5 44/44/5 42/42/5
f 44/44/5 45/45/5 42/42/5
f 41/41/5 42/42/5 37/37/5
f 46/46/5 45/45/5 44/44/5
f 46/46/5 44/44/5 47/47/5
f 45/45/5 46/46/5 48/48/5
f 49/49/5 48/48/5 46/46/5
f 49/49/5 50/50/5 48/48/5
o SM_Floor08
v -0.035594 0.028700 0.035165
v -0.035598 0.028700 0.042361
v -0.029982 0.028700 0.035180
v -0.025308 0.028700 0.035193
v -0.022439 0.028700 0.039837
v -0.022484 0.028700 0.035201
v -0.022413 0.028700 0.042506
v -0.010066 0.028700 0.046214
v -0.018718 0.028700 0.042547
v -0.035615 0.028700 0.073824
v -0.016259 0.028700 0.040040
v -0.007542 0.028700 0.054648
v -0.035615 0.028700 0.073824
v -0.007500 0.028700 0.059241
v -0.007595 0.028700 0.048678
v -0.007369 0.028700 0.073824
vn -0.0000 1.0000 -0.0000
vt -1.501114 2.350820
vt -1.950891 2.351055
vt -1.502067 2.000028
vt -1.502861 1.707893
vt -1.793125 1.528622
vt -1.503341 1.531425
vt -1.959936 1.527009
vt -2.191695 0.755310
vt -1.962471 1.296032
vt -3.917286 2.352081
vt -1.805808 1.142350
vt -2.718767 0.597525
vt -3.005887 0.594940
vt -2.345661 0.600885
vt -3.917286 0.586733
s 0
f 51/51/6 52/52/6 53/53/6
f 53/53/6 52/52/6 54/54/6
f 54/54/6 55/55/6 56/56/6
f 55/55/6 54/54/6 52/52/6
f 55/55/6 52/52/6 57/57/6
f 57/57/6 58/58/6 59/59/6
f 58/58/6 57/57/6 60/60/6
f 58/58/6 61/61/6 59/59/6
f 52/52/6 60/60/6 57/57/6
f 62/62/6 63/60/6 64/63/6
f 62/62/6 58/58/6 63/60/6
f 58/58/6 62/62/6 65/64/6
f 64/63/6 63/60/6 66/65/6
o SM_Floor09
v -0.007369 0.028700 0.073824
v 0.038127 0.028700 0.073824
v -0.007500 0.028700 0.059241
v 0.038127 0.028700 0.035575
v -0.000312 0.028700 0.054648
v -0.007542 0.028700 0.054648
v -0.000221 0.028700 0.035575
vn -0.0000 1.0000 -0.0000
vt -3.917286 0.586733
vt -3.917286 -2.256776
vt -3.005887 0.594940
vt -1.526748 -2.256777
vt -2.718784 0.145654
vt -2.718767 0.597525
vt -1.526748 0.140002
s 0
f 67/66/7 68/67/7 69/68/7
f 68/67/7 70/69/7 69/68/7
f 69/68/7 70/69/7 71/70/7
f 69/68/7 71/70/7 72/71/7
f 70/69/7 73/72/7 71/70/7
o SM_Floor10
v 0.038127 0.028700 0.035575
v 0.024725 0.028700 0.017718
v 0.038127 0.028700 0.035575
v 0.038127 0.028700 0.017718
v -0.000221 0.028700 0.017718
v -0.000221 0.028700 0.035575
vn -0.0000 1.0000 -0.0000
vt -1.526748 -2.256777
vt -0.410658 -1.419172
vt -0.410659 -2.256777
vt -0.410658 0.140002
vt -1.526748 0.140002
s 0
f 74/73/8 75/74/8 76/73/8
f 75/74/8 74/73/8 77/75/8
f 78/76/8 79/77/8 75/74/8
f 75/74/8 79/77/8 76/73/8
o SM_Floor11
v -0.000312 0.028700 0.054648
v -0.007595 0.028700 0.048678
v -0.007542 0.028700 0.054648
v -0.000221 0.028700 0.035575
v -0.010066 0.028700 0.046214
v 0.024725 0.028700 0.017718
v 0.024725 0.028700 0.012686
v 0.015249 0.028700 0.012686
v -0.014581 0.028700 0.038330
v -0.016259 0.028700 0.040040
v 0.015249 0.028700 -0.001122
v -0.001589 0.028700 -0.001122
v -0.013624 0.028700 -0.005306
v -0.013610 0.028700 0.014247
v -0.001588 0.028700 -0.012936
v -0.013630 0.028700 -0.012936
v -0.000221 0.028700 0.017718
v -0.013653 0.028700 0.037383
v -0.013632 0.028700 0.027059
v -0.013609 0.028700 0.015797
vn -0.0000 1.0000 -0.0000
vt -2.718784 0.145654
vt -2.345661 0.600885
vt -2.718767 0.597525
vt -1.526748 0.140002
vt -2.191695 0.755310
vt -0.410658 -1.419172
vt -0.096186 -1.419173
vt -0.096186 -0.826873
vt -1.698911 1.037488
vt -1.805808 1.142350
vt 0.766851 -0.826873
vt 0.766851 0.225498
vt 1.028353 0.977678
vt -0.193739 0.976780
vt 1.505192 0.225400
vt 1.505192 0.978028
vt -0.410658 0.140002
vt -1.639765 0.979468
vt -0.994516 0.978148
vt -0.290624 0.976709
s 0
f 80/78/9 81/79/9 82/80/9
f 83/81/9 84/82/9 81/79/9
f 81/79/9 80/78/9 83/81/9
f 85/83/9 86/84/9 87/85/9
f 84/82/9 83/81/9 88/86/9
f 84/82/9 88/86/9 89/87/9
f 87/85/9 90/88/9 91/89/9
f 91/89/9 92/90/9 93/91/9
f 92/90/9 94/92/9 95/93/9
f 94/92/9 92/90/9 91/89/9
f 85/83/9 87/85/9 96/94/9
f 88/86/9 83/81/9 97/95/9
f 83/81/9 98/96/9 97/95/9
f 98/96/9 83/81/9 96/94/9
f 96/94/9 87/85/9 91/89/9
f 98/96/9 96/94/9 99/97/9
f 96/94/9 93/91/9 99/97/9
f 93/91/9 96/94/9 91/89/9
