# Blender 4.0.2
# www.blender.org
o SM_Floor_kitchen
v -0.040673 0.002000 0.043228
v -0.015910 0.002000 -0.012153
v -0.040673 0.002000 -0.012474
v -0.016560 0.002000 -0.012474
v 0.001520 0.002000 0.043228
v 0.001520 0.002000 -0.012153
v 0.001504 0.002060 0.000071
v 0.001504 0.002060 0.012694
v 0.001629 0.002060 0.012694
v 0.001629 0.002060 0.000071
v 0.001716 0.002000 0.012694
v 0.001716 0.002000 0.000071
v 0.001416 0.002000 0.000071
v 0.001416 0.002000 0.012694
v -0.040392 0.002060 -0.012414
v -0.016638 0.002060 -0.012539
v -0.040392 0.002060 -0.012539
v -0.016638 0.002060 -0.012414
v -0.016638 0.002000 -0.012626
v -0.040392 0.002000 -0.012626
v -0.040392 0.002000 -0.012326
v -0.016638 0.002000 -0.012326
v -0.016433 0.002060 0.043249
v -0.007272 0.002060 0.043124
v -0.016433 0.002060 0.043124
v -0.007272 0.002060 0.043249
v -0.007272 0.002000 0.043037
v -0.016433 0.002000 0.043037
v -0.016433 0.002000 0.043337
v -0.007272 0.002000 0.043337
vn -0.0000 1.0000 -0.0000
vn -0.2963 0.9551 -0.0000
vn -0.2963 0.9551 -0.0001
vn 0.2963 0.9551 -0.0000
vn 0.5660 0.8244 -0.0000
vn -0.5660 0.8244 -0.0000
vn -0.0000 0.9551 0.2963
vn -0.0000 0.9551 -0.2963
vn -0.0000 0.8244 -0.5660
vn -0.0000 0.8244 0.5660
vn -0.0001 0.9551 0.2963
vn -0.0000 0.8244 0.5659
vt 0.045663 -0.121665
vt 0.595956 1.109027
vt 0.045663 1.116161
vt 0.581520 1.116161
vt 0.983287 -0.121665
vt 0.983287 1.109027
vt 0.582069 0.505798
vt 0.417931 0.505798
vt 0.417931 0.503016
vt 0.582069 0.503016
vt 0.417931 0.501074
vt 0.582069 0.501074
vt 0.582069 0.507741
vt 0.417931 0.507741
s 0
f 1/1/1 2/2/1 3/3/1
f 3/3/1 2/2/1 4/4/1
f 2/2/1 1/1/1 5/5/1
f 2/2/1 5/5/1 6/6/1
f 7/7/2 8/8/3 9/9/4
f 7/7/2 9/9/4 10/10/4
f 10/10/4 9/9/4 11/11/5
f 10/10/4 11/11/5 12/12/5
f 13/13/6 14/14/6 8/8/2
f 13/13/6 8/8/2 7/7/2
f 15/7/7 16/9/8 17/10/8
f 16/9/8 15/7/7 18/8/7
f 17/10/8 19/11/9 20/12/9
f 19/11/9 17/10/8 16/9/8
f 18/8/7 15/7/7 21/13/10
f 21/13/10 22/14/10 18/8/7
f 23/7/7 24/9/8 25/10/8
f 24/9/8 23/7/7 26/8/7
f 25/10/8 27/11/9 28/12/9
f 27/11/9 25/10/8 24/9/8
f 26/8/7 23/7/11 29/13/12
f 29/13/12 30/14/12 26/8/7
