# Blender 4.0.2
# www.blender.org
o SM_Floor00
v 0.001520 0.002000 0.029526
v 0.017192 0.002000 0.012930
v 0.001520 0.002000 0.012876
v 0.017299 0.002000 0.029632
vn -0.0000 1.0000 -0.0000
vt -1.148646 0.031175
vt -0.111394 -0.948337
vt -0.108059 0.031175
vt -1.155317 -0.955007
s 0
f 1/1/1 2/2/1 3/3/1
f 2/2/1 1/1/1 4/4/1
o SM_Floor01
v -0.035615 0.002000 0.073824
v -0.027335 0.002000 0.073824
v -0.035615 0.002000 0.043228
v 0.038031 0.002000 0.023569
v 0.042192 0.002000 0.023569
v 0.042192 0.002000 -0.012153
v -0.027335 0.002000 0.079008
v -0.007343 0.002000 0.079008
v -0.007343 0.002000 0.073824
v 0.038031 0.002000 0.073824
v 0.001520 0.002000 0.043228
v 0.017192 0.002000 0.012930
v 0.001520 0.002000 -0.012153
v 0.001520 0.002000 0.012876
v 0.001520 0.002000 0.029526
v 0.017299 0.002000 0.029632
vn -0.0000 1.0000 -0.0000
vt -3.917286 2.352081
vt -3.917286 1.834610
vt -2.005037 2.352081
vt -0.776393 -2.250738
vt -0.776392 -2.510848
vt 1.456284 -2.510848
vt -4.241322 1.834611
vt -4.241322 0.585080
vt -3.917285 0.585080
vt -3.917286 -2.250738
vt -2.005037 0.031175
vt -0.111394 -0.948337
vt 1.456285 0.031175
vt -0.108059 0.031175
vt -1.148646 0.031175
vt -1.155317 -0.955007
s 0
f 5/5/2 6/6/2 7/7/2
f 8/8/2 9/9/2 10/10/2
f 11/11/2 12/12/2 6/6/2
f 6/6/2 12/12/2 13/13/2
f 13/13/2 14/14/2 8/8/2
f 7/7/2 6/6/2 13/13/2
f 13/13/2 8/8/2 15/15/2
f 15/15/2 7/7/2 13/13/2
f 16/16/2 17/17/2 18/18/2
f 10/10/2 17/17/2 16/16/2
f 19/19/2 15/15/2 20/20/2
f 15/15/2 8/8/2 20/20/2
f 20/20/2 8/8/2 16/16/2
f 8/8/2 10/10/2 16/16/2
o SM_Floor02
v -0.054155 0.002000 -0.072714
v -0.054155 0.002000 -0.013815
v -0.040673 0.002000 -0.012474
v -0.016560 0.002000 -0.012474
v -0.016560 0.002000 -0.072714
vn -0.0000 1.0000 -0.0000
vt 5.241323 3.510848
vt 1.560111 3.510849
vt 1.476350 2.668244
vt 1.476350 1.161145
vt 5.241322 1.161145
s 0
f 21/21/3 22/22/3 23/23/3
f 24/24/3 25/25/3 21/21/3
f 21/21/3 23/23/3 24/24/3
o SM_Floor03
v -0.001588 0.028700 -0.012936
v 0.042407 0.028700 -0.012936
v 0.042407 0.028700 -0.038625
v 0.046869 0.028700 -0.038625
v 0.046869 0.028700 -0.072714
v -0.013633 0.028700 -0.021954
v -0.013630 0.028700 -0.012936
v -0.013633 0.028700 -0.057300
v -0.013614 0.028700 -0.072714
vn -0.0000 1.0000 -0.0000
vt 1.505192 0.225400
vt 1.505191 -2.524273
vt 3.110748 -2.524273
vt 3.110748 -2.803155
vt 5.241322 -2.803156
vt 2.068834 0.978262
vt 1.505192 0.978028
vt 4.277963 0.978261
vt 5.241323 0.977022
s 0
f 26/26/4 27/27/4 28/28/4
f 28/28/4 29/29/4 30/30/4
f 31/31/4 32/32/4 26/26/4
f 31/31/4 26/26/4 33/33/4
f 33/33/4 26/26/4 28/28/4
f 33/33/4 28/28/4 30/30/4
f 33/33/4 30/30/4 34/34/4
o SM_Floor04
v -0.048349 0.028700 -0.072714
v -0.048349 0.028700 -0.051540
v -0.033822 0.028700 -0.051540
v -0.033822 0.028700 -0.057300
v -0.013633 0.028700 -0.057300
v -0.013614 0.028700 -0.072714
vn -0.0000 1.0000 -0.0000
vt 5.241323 3.147973
vt 3.917924 3.147974
vt 3.917924 2.240047
vt 4.277963 2.240047
vt 4.277963 0.978261
vt 5.241323 0.977022
s 0
f 35/35/5 36/36/5 37/37/5
f 38/38/5 35/35/5 37/37/5
f 35/35/5 38/38/5 39/39/5
f 39/39/5 40/40/5 35/35/5
o SM_Floor05
v -0.013633 0.028700 -0.057300
v -0.033822 0.028700 -0.057300
v -0.013633 0.028700 -0.021954
v -0.048349 0.028700 -0.029777
v -0.033822 0.028700 -0.051540
v -0.048349 0.028700 -0.051540
v -0.027492 0.028700 -0.029777
v -0.027492 0.028700 -0.021954
vn -0.0000 1.0000 -0.0000
vt 4.277963 0.978261
vt 4.277963 2.240047
vt 2.068834 0.978262
vt 2.557777 3.147974
vt 3.917924 2.240047
vt 3.917924 3.147974
vt 2.557776 1.844448
vt 2.068834 1.844449
s 0
f 41/41/6 42/42/6 43/43/6
f 44/44/6 45/45/6 46/46/6
f 45/45/6 44/44/6 47/47/6
f 43/43/6 45/45/6 47/47/6
f 45/45/6 43/43/6 42/42/6
f 47/47/6 48/48/6 43/43/6
o SM_Floor06
v -0.035569 0.028700 -0.012936
v -0.048349 0.028700 -0.029777
v -0.040673 0.028700 -0.012936
v -0.048349 0.028700 -0.012936
v -0.027492 0.028700 -0.029777
v -0.027492 0.028700 -0.021954
v -0.013630 0.028700 -0.012936
v -0.013633 0.028700 -0.021954
v -0.013624 0.028700 -0.005306
v -0.013609 0.028700 0.015797
v -0.013610 0.028700 0.014247
v -0.014827 0.028700 0.015803
v -0.035584 0.028700 0.015904
vn -0.0000 1.0000 -0.0000
vt 1.505192 2.349250
vt 2.557777 3.147974
vt 1.505192 2.668244
vt 1.505192 3.147974
vt 2.557776 1.844448
vt 2.068834 1.844449
vt 1.505192 0.978028
vt 2.068834 0.978262
vt 1.028353 0.977678
vt -0.290624 0.976709
vt -0.193739 0.976780
vt -0.290994 1.052843
vt -0.297296 2.350192
s 0
f 49/49/7 50/50/7 51/51/7
f 50/50/7 52/52/7 51/51/7
f 53/53/7 50/50/7 49/49/7
f 54/54/7 53/53/7 49/49/7
f 55/55/7 54/54/7 49/49/7
f 54/54/7 55/55/7 56/56/7
f 55/55/7 49/49/7 57/57/7
f 58/58/7 59/59/7 60/60/7
f 49/49/7 61/61/7 57/57/7
f 61/61/7 59/59/7 57/57/7
f 59/59/7 61/61/7 60/60/7
o SM_Floor07
v -0.022439 0.028700 0.039837
v -0.022413 0.028700 0.042506
v -0.018718 0.028700 0.042547
v -0.016259 0.028700 0.040040
v -0.014581 0.028700 0.038330
v -0.022484 0.028700 0.035201
v -0.013653 0.028700 0.037383
v -0.013632 0.028700 0.027059
v -0.025308 0.028700 0.035193
v -0.014827 0.028700 0.015803
v -0.013609 0.028700 0.015797
v -0.029982 0.028700 0.035180
v -0.035584 0.028700 0.015904
v -0.035594 0.028700 0.035165
vn -0.0000 1.0000 -0.0000
vt -1.793125 1.528622
vt -1.959936 1.527009
vt -1.962471 1.296032
vt -1.805808 1.142350
vt -1.698911 1.037488
vt -1.503341 1.531425
vt -1.639765 0.979468
vt -0.994516 0.978148
vt -1.502861 1.707893
vt -0.290994 1.052843
vt -0.290624 0.976709
vt -1.502067 2.000028
vt -0.297296 2.350192
vt -1.501114 2.350820
s 0
f 62/62/8 63/63/8 64/64/8
f 62/62/8 64/64/8 65/65/8
f 65/65/8 66/66/8 62/62/8
f 67/67/8 66/66/8 68/68/8
f 68/68/8 69/69/8 67/67/8
f 69/69/8 70/70/8 67/67/8
f 66/66/8 67/67/8 62/62/8
f 71/71/8 70/70/8 69/69/8
f 71/71/8 69/69/8 72/72/8
f 70/70/8 71/71/8 73/73/8
f 74/74/8 73/73/8 71/71/8
f 74/74/8 75/75/8 73/73/8
o SM_Floor08
v -0.035594 0.028700 0.035165
v -0.035598 0.028700 0.042361
v -0.029982 0.028700 0.035180
v -0.025308 0.028700 0.035193
v -0.022439 0.028700 0.039837
v -0.022484 0.028700 0.035201
v -0.022413 0.028700 0.042506
v -0.010066 0.028700 0.046214
v -0.018718 0.028700 0.042547
v -0.035615 0.028700 0.073824
v -0.016259 0.028700 0.040040
v -0.007542 0.028700 0.054648
v -0.035615 0.028700 0.073824
v -0.007500 0.028700 0.059241
v -0.007595 0.028700 0.048678
v -0.007369 0.028700 0.073824
vn -0.0000 1.0000 -0.0000
vt -1.501114 2.350820
vt -1.950891 2.351055
vt -1.502067 2.000028
vt -1.502861 1.707893
vt -1.793125 1.528622
vt -1.503341 1.531425
vt -1.959936 1.527009
vt -2.191695 0.755310
vt -1.962471 1.296032
vt -3.917286 2.352081
vt -1.805808 1.142350
vt -2.718767 0.597525
vt -3.005887 0.594940
vt -2.345661 0.600885
vt -3.917286 0.586733
s 0
f 76/76/9 77/77/9 78/78/9
f 78/78/9 77/77/9 79/79/9
f 79/79/9 80/80/9 81/81/9
f 80/80/9 79/79/9 77/77/9
f 80/80/9 77/77/9 82/82/9
f 82/82/9 83/83/9 84/84/9
f 83/83/9 82/82/9 85/85/9
f 83/83/9 86/86/9 84/84/9
f 77/77/9 85/85/9 82/82/9
f 87/87/9 88/85/9 89/88/9
f 87/87/9 83/83/9 88/85/9
f 83/83/9 87/87/9 90/89/9
f 89/88/9 88/85/9 91/90/9
o SM_Floor09
v -0.007369 0.028700 0.073824
v 0.038127 0.028700 0.073824
v -0.007500 0.028700 0.059241
v 0.038127 0.028700 0.035575
v -0.000312 0.028700 0.054648
v -0.007542 0.028700 0.054648
v -0.000221 0.028700 0.035575
vn -0.0000 1.0000 -0.0000
vt -3.917286 0.586733
vt -3.917286 -2.256776
vt -3.005887 0.594940
vt -1.526748 -2.256777
vt -2.718784 0.145654
vt -2.718767 0.597525
vt -1.526748 0.140002
s 0
f 92/91/10 93/92/10 94/93/10
f 93/92/10 95/94/10 94/93/10
f 94/93/10 95/94/10 96/95/10
f 94/93/10 96/95/10 97/96/10
f 95/94/10 98/97/10 96/95/10
o SM_Floor10
v 0.038127 0.028700 0.035575
v 0.024725 0.028700 0.017718
v 0.038127 0.028700 0.035575
v 0.038127 0.028700 0.017718
v -0.000221 0.028700 0.017718
v -0.000221 0.028700 0.035575
vn -0.0000 1.0000 -0.0000
vt -1.526748 -2.256777
vt -0.410658 -1.419172
vt -0.410659 -2.256777
vt -0.410658 0.140002
vt -1.526748 0.140002
s 0
f 99/98/11 100/99/11 101/98/11
f 100/99/11 99/98/11 102/100/11
f 103/101/11 104/102/11 100/99/11
f 100/99/11 104/102/11 101/98/11
o SM_Floor11
v -0.000312 0.028700 0.054648
v -0.007595 0.028700 0.048678
v -0.007542 0.028700 0.054648
v -0.000221 0.028700 0.035575
v -0.010066 0.028700 0.046214
v 0.024725 0.028700 0.017718
v 0.024725 0.028700 0.012686
v 0.015249 0.028700 0.012686
v -0.014581 0.028700 0.038330
v -0.016259 0.028700 0.040040
v 0.015249 0.028700 -0.001122
v -0.001589 0.028700 -0.001122
v -0.013624 0.028700 -0.005306
v -0.013610 0.028700 0.014247
v -0.001588 0.028700 -0.012936
v -0.013630 0.028700 -0.012936
v -0.000221 0.028700 0.017718
v -0.013653 0.028700 0.037383
v -0.013632 0.028700 0.027059
v -0.013609 0.028700 0.015797
vn -0.0000 1.0000 -0.0000
vt -2.718784 0.145654
vt -2.345661 0.600885
vt -2.718767 0.597525
vt -1.526748 0.140002
vt -2.191695 0.755310
vt -0.410658 -1.419172
vt -0.096186 -1.419173
vt -0.096186 -0.826873
vt -1.698911 1.037488
vt -1.805808 1.142350
vt 0.766851 -0.826873
vt 0.766851 0.225498
vt 1.028353 0.977678
vt -0.193739 0.976780
vt 1.505192 0.225400
vt 1.505192 0.978028
vt -0.410658 0.140002
vt -1.639765 0.979468
vt -0.994516 0.978148
vt -0.290624 0.976709
s 0
f 105/103/12 106/104/12 107/105/12
f 108/106/12 109/107/12 106/104/12
f 106/104/12 105/103/12 108/106/12
f 110/108/12 111/109/12 112/110/12
f 109/107/12 108/106/12 113/111/12
f 109/107/12 113/111/12 114/112/12
f 112/110/12 115/113/12 116/114/12
f 116/114/12 117/115/12 118/116/12
f 117/115/12 119/117/12 120/118/12
f 119/117/12 117/115/12 116/114/12
f 110/108/12 112/110/12 121/119/12
f 113/111/12 108/106/12 122/120/12
f 108/106/12 123/121/12 122/120/12
f 123/121/12 108/106/12 121/119/12
f 121/119/12 112/110/12 116/114/12
f 123/121/12 121/119/12 124/122/12
f 121/119/12 118/116/12 124/122/12
f 118/116/12 121/119/12 116/114/12
