# Blender 4.1.1
# www.blender.org
o SM_PictureSetB
v 0.010000 0.355000 0.345000
v 0.010000 0.355000 0.655000
v 0.010000 0.045000 0.655000
v 0.010000 0.045000 0.345000
v -0.000000 0.025000 0.675000
v -0.000000 0.025000 0.325000
v 0.020000 0.025000 0.675000
v 0.020000 0.025000 0.325000
v -0.000000 0.375000 0.325000
v -0.000000 0.375000 0.675000
v 0.020000 0.375000 0.675000
v 0.020000 0.375000 0.325000
v 0.020000 0.045000 0.655000
v 0.020000 0.045000 0.345000
v 0.020000 0.355000 0.345000
v 0.020000 0.355000 0.655000
vn 1.0000 -0.0000 -0.0000
vn -0.0000 -1.0000 -0.0000
vn -0.0000 1.0000 -0.0000
vn -0.0000 -0.0000 -1.0000
vn -1.0000 -0.0000 -0.0000
vn -0.0000 -0.0000 1.0000
vt 0.852102 0.994530
vt 0.436735 0.994530
vt 0.436736 0.579163
vt 0.852102 0.579163
vt 0.123081 0.103888
vt 0.592044 0.103888
vt 0.123081 0.130685
vt 0.592044 0.130685
vt 0.592044 0.090122
vt 0.123081 0.090122
vt 0.123081 0.063325
vt 0.592044 0.063325
vt 0.895265 0.093109
vt 0.895265 0.562071
vt 0.868467 0.093109
vt 0.868467 0.562071
vt 0.084801 0.063274
vt 0.084801 0.137329
vt 0.010746 0.137329
vt 0.010746 0.063274
vt 0.933812 0.093109
vt 0.907014 0.562071
vt 0.907014 0.093109
vt 0.933812 0.562071
vt 0.504700 0.048141
vt 0.946865 0.021343
vt 0.973663 0.048141
vt 0.531498 0.021343
vt 0.986391 0.524157
vt 0.959593 0.081992
vt 0.986391 0.055194
vt 0.959593 0.497359
vt 0.030042 0.018577
vt 0.499004 0.018577
vt 0.472206 0.045375
vt 0.056840 0.045375
vt 0.962323 0.987400
vt 0.962323 0.518437
vt 0.989121 0.545235
vt 0.989121 0.960602
vt 0.865299 0.992808
vt 0.865299 0.577439
vt 0.878698 0.577439
vt 0.878698 0.992808
vt 0.889361 0.577439
vt 0.902760 0.992807
vt 0.889361 0.992807
vt 0.902760 0.577439
vt 0.926304 0.577439
vt 0.912905 0.992805
vt 0.912905 0.577439
vt 0.926304 0.992805
vt 0.932314 0.992805
vt 0.932314 0.577439
vt 0.945713 0.577439
vt 0.945713 0.992805
s 0
f 1/1/1 2/2/1 3/3/1
f 1/1/1 3/3/1 4/4/1
f 5/5/2 6/6/2 7/7/2
f 8/8/2 7/7/2 6/6/2
f 9/9/3 10/10/3 11/11/3
f 9/9/3 11/11/3 12/12/3
f 12/13/4 8/14/4 9/15/4
f 9/15/4 8/14/4 6/16/4
f 10/17/5 9/18/5 6/19/5
f 10/17/5 6/19/5 5/20/5
f 10/21/6 7/22/6 11/23/6
f 7/22/6 10/21/6 5/24/6
f 8/25/1 13/26/1 7/27/1
f 13/26/1 8/25/1 14/28/1
f 12/29/1 14/30/1 8/31/1
f 14/30/1 12/29/1 15/32/1
f 12/33/1 11/34/1 16/35/1
f 12/33/1 16/35/1 15/36/1
f 11/37/1 7/38/1 13/39/1
f 11/37/1 13/39/1 16/40/1
f 4/41/3 3/42/3 13/43/3
f 4/41/3 13/43/3 14/44/3
f 15/45/6 4/46/6 14/47/6
f 4/46/6 15/45/6 1/48/6
f 2/49/2 15/50/2 16/51/2
f 15/50/2 2/49/2 1/52/2
f 3/53/4 2/54/4 16/55/4
f 16/55/4 13/56/4 3/53/4
o SM_PictureSetC
v 0.010000 0.655000 -0.155000
v 0.010000 0.655000 0.155000
v 0.010000 0.345000 0.155000
v 0.010000 0.345000 -0.155000
v -0.000000 0.325000 0.175000
v -0.000000 0.325000 -0.175000
v 0.020000 0.325000 0.175000
v 0.020000 0.325000 -0.175000
v 0.000000 0.675000 -0.175000
v 0.000000 0.675000 0.175000
v 0.020000 0.675000 0.175000
v 0.020000 0.675000 -0.175000
v 0.020000 0.345000 -0.155000
v 0.020000 0.345000 0.155000
v 0.020000 0.655000 -0.155000
v 0.020000 0.655000 0.155000
vn 1.0000 -0.0000 -0.0000
vn -0.0000 -1.0000 -0.0000
vn -0.0000 1.0000 -0.0000
vn -0.0000 -0.0000 -1.0000
vn -1.0000 -0.0000 -0.0000
vn -0.0000 -0.0000 1.0000
vt 0.853419 0.562166
vt 0.438052 0.562166
vt 0.438052 0.146800
vt 0.853419 0.146800
vt 0.123081 0.103888
vt 0.592044 0.103888
vt 0.123081 0.130685
vt 0.592044 0.130685
vt 0.592044 0.090122
vt 0.123081 0.090122
vt 0.123081 0.063325
vt 0.592044 0.063325
vt 0.895265 0.093109
vt 0.895265 0.562071
vt 0.868467 0.093109
vt 0.868467 0.562071
vt 0.084801 0.063274
vt 0.084801 0.137329
vt 0.010746 0.137329
vt 0.010746 0.063274
vt 0.933812 0.093109
vt 0.907014 0.562071
vt 0.907014 0.093109
vt 0.933812 0.562071
vt 0.973663 0.048141
vt 0.504700 0.048141
vt 0.531498 0.021343
vt 0.946865 0.021343
vt 0.986391 0.524157
vt 0.959593 0.081992
vt 0.986391 0.055194
vt 0.959593 0.497359
vt 0.472206 0.045375
vt 0.030042 0.018577
vt 0.499004 0.018577
vt 0.056840 0.045375
vt 0.962323 0.987400
vt 0.962323 0.518437
vt 0.989121 0.545235
vt 0.989121 0.960602
vt 0.865299 0.577439
vt 0.878698 0.992808
vt 0.865299 0.992808
vt 0.878698 0.577439
vt 0.889361 0.577439
vt 0.902760 0.992807
vt 0.889361 0.992807
vt 0.902760 0.577439
vt 0.912905 0.992805
vt 0.912905 0.577439
vt 0.926304 0.577439
vt 0.926304 0.992805
vt 0.932314 0.992805
vt 0.932314 0.577439
vt 0.945713 0.577439
vt 0.945713 0.992805
s 0
f 17/57/7 18/58/7 19/59/7
f 17/57/7 19/59/7 20/60/7
f 21/61/8 22/62/8 23/63/8
f 24/64/8 23/63/8 22/62/8
f 25/65/9 26/66/9 27/67/9
f 25/65/9 27/67/9 28/68/9
f 28/69/10 24/70/10 25/71/10
f 25/71/10 24/70/10 22/72/10
f 26/73/11 25/74/11 22/75/11
f 26/73/11 22/75/11 21/76/11
f 26/77/12 23/78/12 27/79/12
f 23/78/12 26/77/12 21/80/12
f 23/81/7 24/82/7 29/83/7
f 23/81/7 29/83/7 30/84/7
f 28/85/7 29/86/7 24/87/7
f 29/86/7 28/85/7 31/88/7
f 32/89/7 28/90/7 27/91/7
f 28/90/7 32/89/7 31/92/7
f 27/93/7 23/94/7 30/95/7
f 27/93/7 30/95/7 32/96/7
f 19/97/9 29/98/9 20/99/9
f 29/98/9 19/97/9 30/100/9
f 31/101/12 20/102/12 29/103/12
f 20/102/12 31/101/12 17/104/12
f 31/105/8 32/106/8 18/107/8
f 31/105/8 18/107/8 17/108/8
f 19/109/10 18/110/10 32/111/10
f 32/111/10 30/112/10 19/109/10
o SM_PictureSetD
v 0.010000 0.055000 0.845000
v 0.010000 0.055000 1.155000
v 0.010000 -0.255000 1.155000
v 0.010000 -0.255000 0.845000
v -0.000000 -0.275000 1.175000
v -0.000000 -0.275000 0.825000
v 0.020000 -0.275000 1.175000
v 0.020000 -0.275000 0.825000
v -0.000000 0.075000 0.825000
v -0.000000 0.075000 1.175000
v 0.020000 0.075000 1.175000
v 0.020000 0.075000 0.825000
v 0.020000 -0.255000 0.845000
v 0.020000 -0.255000 1.155000
v 0.020000 0.055000 0.845000
v 0.020000 0.055000 1.155000
vn 1.0000 -0.0000 -0.0000
vn -0.0000 -1.0000 -0.0000
vn -0.0000 1.0000 -0.0000
vn -0.0000 -0.0000 -1.0000
vn -1.0000 -0.0000 -0.0000
vn -0.0000 -0.0000 1.0000
vt 0.422285 0.562253
vt 0.006918 0.562253
vt 0.006918 0.146887
vt 0.422285 0.146887
vt 0.123081 0.103888
vt 0.592044 0.103888
vt 0.123081 0.130685
vt 0.592044 0.130685
vt 0.592044 0.090122
vt 0.123081 0.090122
vt 0.123081 0.063325
vt 0.592044 0.063325
vt 0.895265 0.093109
vt 0.895265 0.562071
vt 0.868467 0.093109
vt 0.868467 0.562071
vt 0.084801 0.063274
vt 0.084801 0.137329
vt 0.010746 0.137329
vt 0.010746 0.063274
vt 0.933812 0.093109
vt 0.907014 0.562071
vt 0.907014 0.093109
vt 0.933812 0.562071
vt 0.973663 0.048141
vt 0.504700 0.048141
vt 0.531498 0.021343
vt 0.946865 0.021343
vt 0.986391 0.524157
vt 0.959593 0.081992
vt 0.986391 0.055194
vt 0.959593 0.497359
vt 0.499004 0.018577
vt 0.056840 0.045375
vt 0.030042 0.018577
vt 0.472206 0.045375
vt 0.962323 0.987400
vt 0.962323 0.518437
vt 0.989121 0.545235
vt 0.989121 0.960602
vt 0.865299 0.577439
vt 0.878698 0.992808
vt 0.865299 0.992808
vt 0.878698 0.577439
vt 0.902760 0.577439
vt 0.889361 0.992807
vt 0.889361 0.577439
vt 0.902760 0.992807
vt 0.912905 0.992805
vt 0.912905 0.577439
vt 0.926304 0.577439
vt 0.926304 0.992805
vt 0.932314 0.577439
vt 0.945713 0.992805
vt 0.932314 0.992805
vt 0.945713 0.577439
s 0
f 33/113/13 34/114/13 35/115/13
f 33/113/13 35/115/13 36/116/13
f 37/117/14 38/118/14 39/119/14
f 40/120/14 39/119/14 38/118/14
f 41/121/15 42/122/15 43/123/15
f 41/121/15 43/123/15 44/124/15
f 44/125/16 40/126/16 41/127/16
f 41/127/16 40/126/16 38/128/16
f 42/129/17 41/130/17 38/131/17
f 42/129/17 38/131/17 37/132/17
f 42/133/18 39/134/18 43/135/18
f 39/134/18 42/133/18 37/136/18
f 39/137/13 40/138/13 45/139/13
f 39/137/13 45/139/13 46/140/13
f 44/141/13 45/142/13 40/143/13
f 45/142/13 44/141/13 47/144/13
f 43/145/13 47/146/13 44/147/13
f 47/146/13 43/145/13 48/148/13
f 43/149/13 39/150/13 46/151/13
f 43/149/13 46/151/13 48/152/13
f 35/153/15 45/154/15 36/155/15
f 45/154/15 35/153/15 46/156/15
f 33/157/18 45/158/18 47/159/18
f 45/158/18 33/157/18 36/160/18
f 47/161/14 48/162/14 34/163/14
f 47/161/14 34/163/14 33/164/14
f 34/165/16 46/166/16 35/167/16
f 46/166/16 34/165/16 48/168/16
