# Blender 4.1.1
# www.blender.org
o SM_DiningTable
v -0.454161 0.561786 0.802470
v -0.454161 0.561786 -0.897530
v 0.495839 0.561786 0.802470
v 0.495839 0.561786 -0.897530
v -0.454161 0.585786 -0.897530
v -0.454161 0.585786 0.802470
v 0.495839 0.585786 0.802470
v 0.495839 0.585786 -0.897530
v 0.445694 0.114642 -0.788945
v 0.451744 -0.030840 -0.854102
v 0.445620 0.117604 -0.847978
v 0.451999 -0.035810 -0.805697
v 0.386588 0.114642 -0.848052
v 0.403339 -0.035810 -0.854357
v 0.403594 -0.040780 -0.805952
v 0.386662 0.111680 -0.789020
v 0.455839 0.561786 -0.777530
v 0.455839 0.449256 -0.777530
v 0.455839 0.561786 -0.857530
v 0.455839 0.449256 -0.857530
v 0.375839 0.561786 -0.857530
v 0.375839 0.449256 -0.857530
v 0.375839 0.561786 -0.777530
v 0.375839 0.449256 -0.777530
v 0.455839 0.417256 -0.777530
v 0.455839 0.417256 -0.857530
v 0.447066 0.429264 -0.848757
v 0.447066 0.429264 -0.786303
v 0.375839 0.417256 -0.857530
v 0.384612 0.429264 -0.848757
v 0.375839 0.417256 -0.777530
v 0.384612 0.429264 -0.786303
v 0.447066 0.437248 -0.786303
v 0.447066 0.437248 -0.848757
v 0.384612 0.437248 -0.848757
v 0.384612 0.437248 -0.786303
v 0.447288 0.265737 -0.849646
v 0.447288 0.265888 -0.780092
v 0.466977 -0.188214 -0.830724
v 0.467192 -0.188214 -0.869550
v 0.377735 0.265888 -0.849646
v 0.428366 -0.188214 -0.869335
v 0.377735 0.266040 -0.780093
v 0.427781 -0.188214 -0.830139
v -0.345576 0.114642 -0.847385
v -0.410733 -0.030840 -0.853435
v -0.404609 0.117605 -0.847311
v -0.362328 -0.035810 -0.853690
v -0.404683 0.114642 -0.788279
v -0.410988 -0.035810 -0.805030
v -0.362583 -0.040780 -0.805285
v -0.345651 0.111680 -0.788353
v -0.334161 0.561786 -0.857530
v -0.334161 0.449256 -0.857530
v -0.414161 0.561786 -0.857530
v -0.414161 0.449256 -0.857530
v -0.414161 0.561786 -0.777530
v -0.414161 0.449256 -0.777530
v -0.334161 0.561786 -0.777530
v -0.334161 0.449256 -0.777530
v -0.334161 0.417256 -0.857530
v -0.414161 0.417256 -0.857530
v -0.405388 0.429264 -0.848758
v -0.342934 0.429264 -0.848758
v -0.414161 0.417256 -0.777530
v -0.405388 0.429264 -0.786303
v -0.334161 0.417256 -0.777530
v -0.342934 0.429264 -0.786303
v -0.342934 0.437248 -0.848758
v -0.405388 0.437248 -0.848758
v -0.405388 0.437248 -0.786303
v -0.342934 0.437248 -0.786303
v -0.406276 0.265737 -0.848979
v -0.336723 0.265888 -0.848979
v -0.387355 -0.188214 -0.868668
v -0.426181 -0.188214 -0.868883
v -0.406277 0.265888 -0.779426
v -0.425966 -0.188214 -0.830057
v -0.336723 0.266040 -0.779426
v -0.386770 -0.188214 -0.829472
v 0.425839 0.461530 0.682965
v 0.425839 0.461530 -0.777530
v 0.449839 0.461530 0.682965
v 0.449839 0.461530 -0.777530
v 0.449839 0.561786 -0.777530
v 0.449839 0.561786 0.682965
v 0.425839 0.561786 0.682965
v 0.425839 0.561786 -0.777530
v 0.375839 0.461530 -0.827530
v -0.335163 0.461530 -0.827530
v 0.375839 0.461530 -0.851530
v -0.335163 0.461530 -0.851530
v 0.375839 0.561786 -0.851530
v -0.335163 0.561786 -0.851530
v 0.375839 0.561786 -0.827530
v -0.335163 0.561786 -0.827530
v 0.387254 0.114642 0.752325
v 0.452411 -0.030840 0.758375
v 0.446287 0.117605 0.752251
v 0.404006 -0.035810 0.758630
v 0.446361 0.114642 0.693218
v 0.452666 -0.035810 0.709970
v 0.404261 -0.040780 0.710225
v 0.387329 0.111680 0.693293
v 0.375839 0.561786 0.762470
v 0.375839 0.449256 0.762470
v 0.455839 0.561786 0.762470
v 0.455839 0.449256 0.762470
v 0.455839 0.449256 0.682470
v 0.455839 0.561786 0.682470
v 0.375839 0.561786 0.682470
v 0.375839 0.449256 0.682470
v 0.375839 0.417256 0.762470
v 0.455839 0.417256 0.762470
v 0.447066 0.429264 0.753697
v 0.384612 0.429264 0.753697
v 0.455839 0.417256 0.682470
v 0.447066 0.429264 0.691243
v 0.375839 0.417256 0.682470
v 0.384612 0.429264 0.691243
v 0.384612 0.437248 0.753697
v 0.447066 0.437248 0.753697
v 0.447066 0.437248 0.691243
v 0.384612 0.437248 0.691243
v 0.447955 0.265737 0.753919
v 0.378401 0.265888 0.753919
v 0.429033 -0.188214 0.773608
v 0.467859 -0.188214 0.773823
v 0.447955 0.265888 0.684366
v 0.467644 -0.188214 0.734997
v 0.378402 0.266040 0.684366
v 0.428448 -0.188214 0.734412
v -0.404016 0.114642 0.693885
v -0.410066 -0.030840 0.759042
v -0.403942 0.117604 0.752918
v -0.410321 -0.035810 0.710637
v -0.344909 0.114642 0.752992
v -0.361661 -0.035810 0.759297
v -0.361916 -0.040780 0.710892
v -0.344984 0.111680 0.693960
v -0.414161 0.561786 0.682470
v -0.414161 0.449256 0.682470
v -0.414161 0.561786 0.762470
v -0.414161 0.449256 0.762470
v -0.334161 0.561786 0.762470
v -0.334161 0.449256 0.762470
v -0.334161 0.561786 0.682470
v -0.334161 0.449256 0.682470
v -0.414161 0.417256 0.682470
v -0.414161 0.417256 0.762470
v -0.405388 0.429264 0.753697
v -0.405388 0.429264 0.691243
v -0.334161 0.417256 0.762470
v -0.342934 0.429264 0.753697
v -0.334161 0.417256 0.682470
v -0.342934 0.429264 0.691243
v -0.405388 0.437248 0.691243
v -0.405388 0.437248 0.753697
v -0.342934 0.437248 0.753697
v -0.342934 0.437248 0.691243
v -0.405610 0.265737 0.754586
v -0.405610 0.265888 0.685032
v -0.425299 -0.188214 0.735664
v -0.425514 -0.188214 0.774490
v -0.336057 0.265888 0.754586
v -0.386688 -0.188214 0.774275
v -0.336057 0.266040 0.685033
v -0.386103 -0.188214 0.735079
v -0.384161 0.461530 0.682470
v -0.408161 0.461530 -0.778025
v -0.384161 0.461530 -0.778025
v -0.408161 0.461530 0.682470
v -0.408161 0.561786 0.682470
v -0.408161 0.561786 -0.778025
v -0.384161 0.561786 -0.778025
v -0.384161 0.561786 0.682470
v 0.376841 0.461530 0.756471
v -0.334161 0.461530 0.756470
v 0.376841 0.461530 0.732471
v -0.334161 0.461530 0.732470
v -0.334161 0.561786 0.756470
v 0.376841 0.561786 0.756471
v -0.334161 0.561786 0.732470
v 0.376841 0.561786 0.732471
vn -0.0000 -1.0000 -0.0000
vn -0.0000 1.0000 -0.0000
vn 1.0000 -0.0000 -0.0000
vn -0.0000 -0.0000 -1.0000
vn -1.0000 -0.0000 -0.0000
vn -0.0000 -0.0000 1.0000
vn 0.9999 0.0148 -0.0004
vn 0.9976 0.0688 0.0025
vn 0.0003 0.0148 -0.9999
vn -0.0025 0.0688 -0.9976
vn 0.0004 0.0148 -0.9999
vn -0.9965 -0.0836 -0.0028
vn -0.9908 -0.1347 -0.0089
vn 0.0028 -0.0836 0.9965
vn 0.0089 -0.1347 0.9908
vn 0.9692 -0.2463 -0.0000
vn -0.0000 -0.2463 -0.9692
vn -0.9692 -0.2463 -0.0000
vn -0.0000 -0.2463 0.9692
vn 0.9767 0.2145 0.0001
vn 0.9759 0.2183 -0.0000
vn 0.9349 0.3549 -0.0000
vn 0.9767 0.2145 -0.0000
vn -0.0000 0.2214 -0.9752
vn -0.0000 0.2166 -0.9763
vn -0.0000 0.3549 -0.9349
vn -0.9697 0.2441 -0.0000
vn -0.9706 0.2406 -0.0000
vn -0.9349 0.3549 -0.0000
vn -0.0000 0.2375 0.9714
vn -0.0000 0.2420 0.9703
vn -0.0000 0.3549 0.9349
vn -0.0000 0.2376 0.9714
vn 0.9692 -0.2464 -0.0000
vn 0.9349 -0.3549 -0.0000
vn -0.0000 -0.2464 -0.9692
vn -0.0000 -0.3549 -0.9349
vn -0.9692 -0.2464 -0.0000
vn -0.9349 -0.3549 -0.0000
vn -0.0000 -0.2464 0.9692
vn -0.0000 -0.3549 0.9349
vn 0.9349 -0.3548 -0.0000
vn 0.9349 0.3548 -0.0000
vn -0.0000 -0.3548 -0.9349
vn -0.0000 0.3548 -0.9349
vn -0.9349 -0.3548 -0.0000
vn -0.9349 0.3548 -0.0000
vn -0.0000 -0.3548 0.9349
vn -0.0000 0.3548 0.9349
vn 0.9767 0.2144 0.0001
vn 0.9994 -0.0340 -0.0004
vn 0.9759 0.2182 -0.0000
vn 0.9994 -0.0342 -0.0004
vn 0.9999 0.0148 -0.0003
vn 0.9994 -0.0341 -0.0004
vn 0.9999 0.0147 -0.0004
vn 0.9953 0.0971 0.0051
vn 0.9953 0.0971 0.0052
vn -0.0000 0.2213 -0.9752
vn 0.0004 -0.0319 -0.9995
vn -0.0001 0.2166 -0.9763
vn 0.0004 -0.0320 -0.9995
vn 0.0004 -0.0318 -0.9995
vn 0.0004 0.0147 -0.9999
vn 0.0003 0.0147 -0.9999
vn -0.0052 0.0971 -0.9953
vn -0.0027 0.0688 -0.9976
vn -0.9698 0.2440 -0.0000
vn -0.9994 -0.0349 -0.0003
vn -0.9706 0.2405 -0.0000
vn -0.9994 -0.0347 -0.0003
vn -0.9965 -0.0835 -0.0028
vn -0.9908 -0.1348 -0.0089
vn -0.9870 -0.1603 -0.0128
vn -0.0000 0.2374 0.9714
vn 0.0003 -0.0371 0.9993
vn -0.0000 0.2419 0.9703
vn 0.0003 -0.0370 0.9993
vn 0.0028 -0.0835 0.9965
vn 0.0128 -0.1603 0.9870
vn 0.0089 -0.1348 0.9908
vn 0.0129 -0.1603 0.9870
vn -0.0004 0.0148 -0.9999
vn 0.0025 0.0688 -0.9976
vn 0.0025 0.0687 -0.9976
vn -0.9999 0.0148 -0.0003
vn -0.9976 0.0688 0.0025
vn -0.9999 0.0148 -0.0004
vn -0.0028 -0.0836 0.9965
vn -0.0089 -0.1347 0.9908
vn 0.9965 -0.0836 -0.0028
vn 0.9908 -0.1347 -0.0089
vn 0.0001 0.2145 -0.9767
vn -0.0000 0.2183 -0.9759
vn -0.0000 0.2145 -0.9767
vn -0.9762 0.2167 -0.0000
vn -0.9752 0.2214 -0.0000
vn -0.9762 0.2166 0.0001
vn -0.0000 0.2441 0.9697
vn -0.0000 0.2406 0.9706
vn 0.9714 0.2375 -0.0000
vn 0.9703 0.2420 -0.0000
vn 0.0001 0.2144 -0.9767
vn -0.0004 -0.0341 -0.9994
vn -0.0000 0.2182 -0.9759
vn -0.0004 -0.0340 -0.9994
vn -0.0004 -0.0342 -0.9994
vn -0.0003 0.0148 -0.9999
vn -0.0004 0.0147 -0.9999
vn 0.0053 0.0971 -0.9953
vn 0.0050 0.0971 -0.9953
vn -0.9752 0.2213 -0.0000
vn -0.9995 -0.0319 -0.0004
vn -0.9763 0.2166 -0.0000
vn -0.9763 0.2166 0.0001
vn -0.9995 -0.0320 -0.0004
vn -0.9999 0.0147 -0.0004
vn -0.9999 0.0147 -0.0003
vn -0.9953 0.0971 0.0052
vn -0.9953 0.0971 0.0050
vn -0.9976 0.0688 0.0027
vn -0.0000 0.2440 0.9698
vn -0.0003 -0.0349 0.9994
vn -0.0000 0.2405 0.9706
vn -0.0003 -0.0347 0.9994
vn -0.0028 -0.0835 0.9965
vn -0.0089 -0.1348 0.9908
vn -0.0128 -0.1603 0.9870
vn -0.0129 -0.1603 0.9870
vn 0.9714 0.2374 -0.0000
vn 0.9993 -0.0371 -0.0003
vn 0.9703 0.2419 -0.0000
vn 0.9993 -0.0370 -0.0003
vn 0.9965 -0.0835 -0.0028
vn 0.9870 -0.1603 -0.0128
vn 0.9908 -0.1348 -0.0089
vn 0.0004 0.0148 0.9999
vn -0.0025 0.0688 0.9976
vn -0.0025 0.0687 0.9976
vn 0.9999 0.0148 0.0003
vn 0.9976 0.0688 -0.0025
vn 0.9999 0.0148 0.0004
vn 0.0028 -0.0836 -0.9965
vn 0.0089 -0.1347 -0.9908
vn -0.9965 -0.0836 0.0028
vn -0.9908 -0.1347 0.0089
vn -0.9908 -0.1348 0.0089
vn -0.0001 0.2145 0.9767
vn -0.0000 0.2183 0.9759
vn -0.0000 0.2145 0.9767
vn 0.9762 0.2167 -0.0000
vn 0.9752 0.2214 -0.0000
vn 0.9762 0.2167 -0.0001
vn -0.0000 0.2441 -0.9697
vn -0.0000 0.2406 -0.9706
vn -0.9714 0.2375 -0.0000
vn -0.9703 0.2420 -0.0000
vn -0.0001 0.2144 0.9767
vn 0.0004 -0.0340 0.9994
vn -0.0000 0.2182 0.9759
vn 0.0004 -0.0342 0.9994
vn 0.0003 0.0148 0.9999
vn 0.0004 -0.0341 0.9994
vn 0.0004 0.0147 0.9999
vn -0.0052 0.0971 0.9953
vn -0.0050 0.0971 0.9953
vn 0.9995 -0.0319 0.0004
vn 0.9763 0.2166 -0.0000
vn 0.9752 0.2213 -0.0000
vn 0.9763 0.2166 -0.0001
vn 0.9995 -0.0320 0.0004
vn 0.9999 0.0147 0.0004
vn 0.9999 0.0147 0.0003
vn 0.9953 0.0971 -0.0053
vn 0.9953 0.0971 -0.0050
vn 0.9976 0.0688 -0.0027
vn -0.0000 0.2440 -0.9698
vn 0.0003 -0.0349 -0.9994
vn -0.0000 0.2405 -0.9706
vn 0.0003 -0.0347 -0.9994
vn 0.0028 -0.0835 -0.9965
vn 0.0089 -0.1348 -0.9908
vn 0.0127 -0.1603 -0.9870
vn 0.0129 -0.1603 -0.9870
vn -0.9714 0.2374 -0.0000
vn -0.9993 -0.0371 0.0003
vn -0.9703 0.2419 -0.0000
vn -0.9993 -0.0370 0.0003
vn -0.9965 -0.0835 0.0028
vn -0.9870 -0.1603 0.0128
vn -0.9870 -0.1603 0.0129
vn -0.9999 0.0148 0.0004
vn -0.9976 0.0688 -0.0025
vn -0.0003 0.0148 0.9999
vn 0.0025 0.0688 0.9976
vn -0.0004 0.0148 0.9999
vn 0.0025 0.0687 0.9976
vn 0.9965 -0.0836 0.0028
vn 0.9908 -0.1348 0.0089
vn 0.9908 -0.1347 0.0089
vn 0.9965 -0.0835 0.0028
vn -0.0028 -0.0836 -0.9965
vn -0.0089 -0.1347 -0.9908
vn -0.9767 0.2145 -0.0001
vn -0.9759 0.2183 -0.0000
vn -0.9767 0.2145 -0.0000
vn -0.0000 0.2214 0.9752
vn -0.0000 0.2167 0.9762
vn 0.9697 0.2441 -0.0000
vn 0.9706 0.2406 -0.0000
vn -0.0000 0.2375 -0.9714
vn -0.0000 0.2420 -0.9703
vn -0.0000 0.2376 -0.9714
vn -0.9767 0.2144 -0.0001
vn -0.9994 -0.0340 0.0004
vn -0.9759 0.2182 -0.0000
vn -0.9994 -0.0342 0.0004
vn -0.9999 0.0148 0.0003
vn -0.9994 -0.0341 0.0004
vn -0.9999 0.0147 0.0004
vn -0.9953 0.0971 -0.0052
vn -0.9953 0.0971 -0.0050
vn -0.0000 0.2213 0.9752
vn -0.0004 -0.0319 0.9995
vn -0.0000 0.2166 0.9763
vn 0.0001 0.2166 0.9763
vn -0.0004 -0.0320 0.9995
vn -0.0004 -0.0318 0.9995
vn -0.0004 0.0147 0.9999
vn -0.0003 0.0147 0.9999
vn 0.0053 0.0971 0.9953
vn 0.0052 0.0971 0.9953
vn 0.0027 0.0688 0.9976
vn 0.9698 0.2440 -0.0000
vn 0.9994 -0.0349 0.0003
vn 0.9706 0.2405 -0.0000
vn 0.9994 -0.0347 0.0003
vn 0.9870 -0.1603 0.0128
vn -0.0000 0.2374 -0.9714
vn -0.0003 -0.0371 -0.9993
vn -0.0000 0.2419 -0.9703
vn -0.0003 -0.0370 -0.9993
vn -0.0028 -0.0835 -0.9965
vn -0.0128 -0.1603 -0.9870
vn -0.0089 -0.1348 -0.9908
vn -0.0129 -0.1603 -0.9870
vt 0.390023 0.751194
vt 0.012554 0.751194
vt 0.390023 0.540255
vt 0.012554 0.540255
vt 0.004292 0.005694
vt 0.868838 0.005694
vt 0.868838 0.488823
vt 0.004292 0.488823
vt 0.016851 0.901255
vt 0.881397 0.901255
vt 0.881397 0.913461
vt 0.016851 0.913461
vt 0.010928 0.498045
vt 0.494057 0.498045
vt 0.494057 0.510250
vt 0.010928 0.510250
vt 0.016851 0.923466
vt 0.881397 0.923466
vt 0.881397 0.935672
vt 0.016851 0.935672
vt 0.010338 0.518134
vt 0.493467 0.518134
vt 0.493467 0.530339
vt 0.010338 0.530339
vt 0.557948 0.884899
vt 0.483924 0.851849
vt 0.559420 0.854876
vt 0.481425 0.876468
vt 0.560074 0.763379
vt 0.484573 0.766279
vt 0.558653 0.733353
vt 0.482116 0.741655
vt 0.557947 0.710195
vt 0.478967 0.688561
vt 0.556526 0.680170
vt 0.481425 0.713185
vt 0.558057 0.803261
vt 0.478944 0.824402
vt 0.481555 0.799794
vt 0.556448 0.833277
vt 0.785352 0.890441
vt 0.728124 0.890507
vt 0.785305 0.849757
vt 0.728077 0.849823
vt 0.728722 0.769054
vt 0.786065 0.728532
vt 0.785950 0.769216
vt 0.728838 0.728369
vt 0.785330 0.715660
vt 0.728103 0.715498
vt 0.785445 0.674976
vt 0.728218 0.674813
vt 0.785333 0.839560
vt 0.728105 0.839365
vt 0.785471 0.798876
vt 0.728243 0.798681
vt 0.711851 0.890526
vt 0.711804 0.849842
vt 0.717916 0.854296
vt 0.717952 0.886058
vt 0.712449 0.769008
vt 0.712564 0.728323
vt 0.718658 0.732802
vt 0.718568 0.764563
vt 0.711829 0.715452
vt 0.711944 0.674767
vt 0.718038 0.679246
vt 0.717948 0.711008
vt 0.711831 0.839310
vt 0.711970 0.798626
vt 0.718061 0.803108
vt 0.717953 0.834869
vt 0.722013 0.886053
vt 0.721976 0.854291
vt 0.722628 0.764575
vt 0.722718 0.732814
vt 0.722008 0.711019
vt 0.722098 0.679258
vt 0.722013 0.834883
vt 0.722121 0.803122
vt 0.634752 0.853940
vt 0.634870 0.889312
vt 0.403904 0.863830
vt 0.403881 0.844085
vt 0.635405 0.764440
vt 0.635583 0.729069
vt 0.404574 0.754163
vt 0.404518 0.773908
vt 0.634862 0.711224
vt 0.635039 0.675852
vt 0.403954 0.700649
vt 0.403897 0.720582
vt 0.634976 0.802712
vt 0.634933 0.838084
vt 0.404007 0.811847
vt 0.404075 0.791913
vt 0.425538 0.540745
vt 0.425429 0.560490
vt 0.405793 0.540854
vt 0.405495 0.560788
vt 0.759596 0.955889
vt 0.016851 0.955889
vt 0.759596 0.943683
vt 0.016851 0.943683
vt 0.931960 0.006093
vt 0.931960 0.748837
vt 0.880974 0.748837
vt 0.880974 0.006093
vt 0.994874 0.004277
vt 0.994875 0.747022
vt 0.943889 0.747022
vt 0.943889 0.004277
vt 0.377382 0.893885
vt 0.015797 0.893884
vt 0.377382 0.881679
vt 0.015797 0.881679
vt 0.016712 0.871978
vt 0.378297 0.820992
vt 0.378297 0.871977
vt 0.016712 0.820992
vt 0.376936 0.812145
vt 0.015350 0.812145
vt 0.015350 0.761159
vt 0.376935 0.761159
s 0
f 1/1/1 2/2/1 3/3/1
f 4/4/1 3/3/1 2/2/1
f 5/5/2 6/6/2 7/7/2
f 5/5/2 7/7/2 8/8/2
f 8/9/3 7/10/3 3/11/3
f 8/9/3 3/11/3 4/12/3
f 5/13/4 8/14/4 4/15/4
f 5/13/4 4/15/4 2/16/4
f 6/17/5 5/18/5 2/19/5
f 6/17/5 2/19/5 1/20/5
f 7/21/6 6/22/6 1/23/6
f 7/21/6 1/23/6 3/24/6
f 9/25/7 10/26/8 11/27/7
f 10/26/8 9/25/7 12/28/8
f 11/29/9 10/30/10 13/31/11
f 13/31/11 10/30/10 14/32/10
f 13/33/12 15/34/13 16/35/12
f 15/34/13 13/33/12 14/36/13
f 9/37/14 15/38/15 12/39/15
f 15/38/15 9/37/14 16/40/14
f 17/41/3 18/42/16 19/43/3
f 19/43/3 18/42/16 20/44/16
f 20/45/17 21/46/4 19/47/4
f 21/46/4 20/45/17 22/48/17
f 21/49/5 22/50/18 23/51/5
f 23/51/5 22/50/18 24/52/18
f 23/53/6 24/54/19 17/55/6
f 17/55/6 24/54/19 18/56/19
f 25/57/20 26/58/21 27/59/22
f 25/57/23 27/59/22 28/60/22
f 26/61/24 29/62/25 30/63/26
f 26/61/24 30/63/26 27/64/26
f 29/65/27 31/66/28 32/67/29
f 29/65/27 32/67/29 30/68/29
f 31/69/30 25/70/31 28/71/32
f 31/69/33 28/71/32 32/72/32
f 20/44/34 18/42/34 33/73/35
f 20/44/34 33/73/35 34/74/35
f 22/48/36 20/45/36 34/75/37
f 22/48/36 34/75/37 35/76/37
f 24/52/38 22/50/38 35/77/39
f 24/52/38 35/77/39 36/78/39
f 18/56/40 24/54/40 36/79/41
f 18/56/40 36/79/41 33/80/41
f 33/73/42 27/59/43 34/74/42
f 27/59/43 33/73/42 28/60/43
f 34/75/44 30/63/45 35/76/44
f 30/63/45 34/75/44 27/64/45
f 35/77/46 32/67/47 36/78/46
f 32/67/47 35/77/46 30/68/47
f 36/79/48 28/71/49 33/80/48
f 28/71/49 36/79/48 32/72/49
f 25/57/50 37/81/51 26/58/52
f 37/81/51 25/57/50 38/82/53
f 38/82/53 11/27/54 37/81/55
f 11/27/56 38/82/53 9/25/56
f 12/28/8 39/83/57 10/26/8
f 39/83/58 40/84/58 10/26/8
f 26/61/59 37/85/60 29/62/25
f 29/62/61 37/85/60 41/86/62
f 11/29/11 41/86/60 37/85/63
f 41/86/62 11/29/64 13/31/65
f 10/30/10 42/87/66 14/32/10
f 42/87/66 10/30/67 40/88/66
f 29/65/68 41/89/69 31/66/70
f 31/66/70 41/89/69 43/90/71
f 13/33/12 43/90/71 41/89/69
f 43/90/71 13/33/12 16/35/72
f 14/36/73 44/91/74 15/34/13
f 44/91/74 14/36/73 42/92/74
f 31/69/75 38/93/76 25/70/77
f 38/93/76 31/69/30 43/94/78
f 43/94/78 9/37/14 38/93/76
f 9/37/79 43/94/78 16/40/79
f 15/38/15 44/95/80 12/39/81
f 44/95/82 39/96/82 12/39/81
f 40/97/1 39/98/1 42/99/1
f 39/98/1 44/100/1 42/99/1
f 45/25/83 46/26/84 47/27/83
f 46/26/84 45/25/83 48/28/85
f 47/29/86 46/30/87 49/31/88
f 49/31/88 46/30/87 50/32/87
f 49/33/89 51/34/90 52/35/89
f 51/34/90 49/33/89 50/36/90
f 45/37/91 51/38/92 48/39/92
f 51/38/92 45/37/91 52/40/91
f 53/41/4 54/42/17 55/43/4
f 55/43/4 54/42/17 56/44/17
f 55/47/5 56/45/18 57/46/5
f 57/46/5 56/45/18 58/48/18
f 57/49/6 58/50/19 59/51/6
f 59/51/6 58/50/19 60/52/19
f 59/53/3 60/54/16 53/55/3
f 53/55/3 60/54/16 54/56/16
f 61/57/93 62/58/94 63/59/26
f 61/57/95 63/59/26 64/60/26
f 65/62/96 63/64/29 62/61/97
f 63/64/29 65/62/98 66/63/29
f 65/65/99 67/66/100 68/67/32
f 65/65/99 68/67/32 66/68/32
f 67/69/101 61/70/102 64/71/22
f 67/69/101 64/71/22 68/72/22
f 56/44/36 54/42/36 69/73/37
f 56/44/36 69/73/37 70/74/37
f 58/48/38 56/45/38 70/75/39
f 58/48/38 70/75/39 71/76/39
f 60/52/40 58/50/40 71/77/41
f 60/52/40 71/77/41 72/78/41
f 60/54/34 69/80/35 54/56/34
f 69/80/35 60/54/34 72/79/35
f 69/73/44 63/59/45 70/74/44
f 63/59/45 69/73/44 64/60/45
f 70/75/46 66/63/47 71/76/46
f 66/63/47 70/75/46 63/64/47
f 71/77/48 68/67/49 72/78/48
f 68/67/49 71/77/48 66/68/49
f 72/79/42 64/71/43 69/80/42
f 64/71/43 72/79/42 68/72/43
f 61/57/103 73/81/104 62/58/105
f 73/81/106 61/57/103 74/82/107
f 74/82/107 47/27/108 73/81/104
f 47/27/109 74/82/107 45/25/109
f 48/28/84 75/83/110 46/26/84
f 75/83/111 76/84/111 46/26/84
f 62/61/112 73/85/113 65/62/114
f 65/62/115 73/85/113 77/86/116
f 47/29/88 77/86/113 73/85/113
f 77/86/116 47/29/117 49/31/118
f 46/30/87 78/87/119 50/32/87
f 78/87/120 46/30/121 76/88/120
f 65/65/122 77/89/123 67/66/124
f 67/66/124 77/89/123 79/90/125
f 49/33/89 79/90/125 77/89/123
f 79/90/125 49/33/89 52/35/126
f 50/36/127 80/91/128 51/34/90
f 80/91/129 50/36/127 78/92/128
f 67/69/130 74/93/131 61/70/132
f 74/93/131 67/69/101 79/94/133
f 79/94/133 45/37/91 74/93/131
f 45/37/91 79/94/133 52/40/134
f 51/38/92 80/95/135 48/39/136
f 80/95/135 75/96/135 48/39/136
f 80/100/1 78/99/1 75/98/1
f 75/98/1 78/99/1 76/97/1
f 81/101/1 82/102/1 83/103/1
f 84/104/1 83/103/1 82/102/1
f 85/105/3 86/106/3 83/107/3
f 85/105/3 83/107/3 84/108/3
f 87/109/5 88/110/5 82/111/5
f 87/109/5 82/111/5 81/112/5
f 89/113/1 90/114/1 91/115/1
f 91/115/1 90/114/1 92/116/1
f 93/117/4 92/118/4 94/119/4
f 92/118/4 93/117/4 91/120/4
f 95/121/6 96/122/6 90/123/6
f 95/121/6 90/123/6 89/124/6
f 97/25/137 98/26/138 99/27/137
f 98/26/138 97/25/137 100/28/139
f 99/29/140 98/30/141 101/31/142
f 101/31/142 98/30/141 102/32/141
f 101/33/143 103/34/144 104/35/143
f 103/34/144 101/33/143 102/36/144
f 97/37/145 103/38/146 100/39/146
f 103/38/147 97/37/145 104/40/145
f 105/41/6 106/42/19 107/43/6
f 107/43/6 106/42/19 108/44/19
f 107/47/3 109/48/16 110/46/3
f 109/48/16 107/47/3 108/45/16
f 110/49/4 109/50/17 111/51/4
f 111/51/4 109/50/17 112/52/17
f 111/53/5 112/54/18 105/55/5
f 105/55/5 112/54/18 106/56/18
f 113/57/148 114/58/149 115/59/32
f 113/57/150 115/59/32 116/60/32
f 117/62/151 115/64/22 114/61/152
f 115/64/22 117/62/153 118/63/22
f 117/65/154 119/66/155 120/67/26
f 117/65/154 120/67/26 118/68/26
f 119/69/156 113/70/157 116/71/29
f 119/69/156 116/71/29 120/72/29
f 108/44/40 106/42/40 121/73/41
f 108/44/40 121/73/41 122/74/41
f 108/45/34 123/76/35 109/48/34
f 123/76/35 108/45/34 122/75/35
f 112/52/36 109/50/36 123/77/37
f 112/52/36 123/77/37 124/78/37
f 106/56/38 112/54/38 124/79/39
f 106/56/38 124/79/39 121/80/39
f 121/73/48 115/59/49 122/74/48
f 115/59/49 121/73/48 116/60/49
f 122/75/42 118/63/43 123/76/42
f 118/63/43 122/75/42 115/64/43
f 124/78/44 118/68/45 120/67/45
f 118/68/45 124/78/44 123/77/44
f 124/79/46 116/71/47 121/80/46
f 116/71/47 124/79/46 120/72/47
f 113/57/158 125/81/159 114/58/160
f 125/81/159 113/57/158 126/82/161
f 126/82/161 99/27/162 125/81/163
f 99/27/164 126/82/161 97/25/164
f 100/28/138 127/83/165 98/26/138
f 127/83/166 128/84/166 98/26/138
f 125/85/167 117/62/168 114/61/169
f 117/62/170 125/85/167 129/86/171
f 99/29/142 129/86/167 125/85/167
f 129/86/167 99/29/172 101/31/173
f 98/30/141 130/87/174 102/32/141
f 130/87/175 98/30/176 128/88/175
f 117/65/177 129/89/178 119/66/179
f 119/66/179 129/89/178 131/90/180
f 101/33/143 131/90/180 129/89/178
f 131/90/180 101/33/143 104/35/181
f 102/36/182 132/91/183 103/34/144
f 132/91/184 102/36/182 130/92/184
f 119/69/185 126/93/186 113/70/187
f 126/93/186 119/69/156 131/94/188
f 131/94/188 97/37/145 126/93/186
f 97/37/145 131/94/188 104/40/189
f 103/38/146 132/95/190 100/39/147
f 132/95/190 127/96/191 100/39/147
f 130/99/1 128/97/1 127/98/1
f 130/99/1 127/98/1 132/100/1
f 133/25/192 134/26/193 135/27/192
f 134/26/193 133/25/192 136/28/193
f 135/29/194 134/30/195 137/31/196
f 137/31/196 134/30/195 138/32/197
f 137/33/198 139/34/199 140/35/198
f 139/34/200 137/33/201 138/36/200
f 133/37/202 139/38/203 136/39/203
f 139/38/203 133/37/202 140/40/202
f 141/41/5 142/42/18 143/43/5
f 143/43/5 142/42/18 144/44/18
f 143/47/6 144/45/19 145/46/6
f 145/46/6 144/45/19 146/48/19
f 145/49/3 146/50/16 147/51/3
f 147/51/3 146/50/16 148/52/16
f 147/53/4 142/56/17 141/55/4
f 142/56/17 147/53/4 148/54/17
f 149/57/204 150/58/205 151/59/29
f 149/57/206 151/59/29 152/60/29
f 150/61/207 153/62/208 154/63/32
f 150/61/207 154/63/32 151/64/32
f 153/65/209 155/66/210 156/67/22
f 153/65/209 156/67/22 154/68/22
f 155/69/211 149/70/212 152/71/26
f 155/69/213 152/71/26 156/72/26
f 144/44/38 142/42/38 157/73/39
f 144/44/38 157/73/39 158/74/39
f 146/48/40 144/45/40 158/75/41
f 146/48/40 158/75/41 159/76/41
f 148/52/34 146/50/34 159/77/35
f 148/52/34 159/77/35 160/78/35
f 142/56/36 148/54/36 160/79/37
f 142/56/36 160/79/37 157/80/37
f 157/73/46 151/59/47 158/74/46
f 151/59/47 157/73/46 152/60/47
f 158/75/48 154/63/49 159/76/48
f 154/63/49 158/75/48 151/64/49
f 159/77/42 156/67/43 160/78/42
f 156/67/43 159/77/42 154/68/43
f 160/79/44 152/71/45 157/80/44
f 152/71/45 160/79/44 156/72/45
f 149/57/214 161/81/215 150/58/216
f 161/81/215 149/57/214 162/82/217
f 162/82/217 135/27/218 161/81/219
f 135/27/220 162/82/217 133/25/220
f 136/28/193 163/83/221 134/26/193
f 163/83/222 164/84/222 134/26/193
f 150/61/223 161/85/224 153/62/225
f 153/62/226 161/85/224 165/86/227
f 135/29/196 165/86/224 161/85/228
f 165/86/227 135/29/229 137/31/230
f 134/30/195 166/87/231 138/32/195
f 166/87/232 134/30/233 164/88/232
f 153/65/234 165/89/235 155/66/236
f 155/66/236 165/89/235 167/90/237
f 137/33/198 167/90/237 165/89/235
f 167/90/237 137/33/201 140/35/201
f 138/36/199 168/91/238 139/34/200
f 168/91/238 138/36/199 166/92/238
f 155/69/239 162/93/240 149/70/241
f 162/93/240 155/69/211 167/94/242
f 167/94/242 133/37/202 162/93/240
f 133/37/243 167/94/242 140/40/243
f 139/38/203 168/95/244 136/39/245
f 168/95/246 163/96/246 136/39/245
f 166/99/1 163/98/1 168/100/1
f 163/98/1 166/99/1 164/97/1
f 169/102/1 170/103/1 171/101/1
f 170/103/1 169/102/1 172/104/1
f 173/105/5 174/106/5 170/107/5
f 173/105/5 170/107/5 172/108/5
f 175/109/3 176/110/3 169/111/3
f 175/109/3 169/111/3 171/112/3
f 177/116/1 178/115/1 179/114/1
f 179/114/1 178/115/1 180/113/1
f 181/117/6 177/118/6 182/119/6
f 177/118/6 181/117/6 178/120/6
f 183/121/4 184/122/4 179/123/4
f 183/121/4 179/123/4 180/124/4
