# Blender 4.0.2
# www.blender.org
o Paper_Folder_1
v 0.099202 0.003151 -0.140771
v 0.103401 0.003151 -0.088335
v 0.035397 0.003151 -0.146120
v 0.103830 0.003151 -0.032115
v -0.058273 0.003151 -0.147316
v -0.105000 0.003151 -0.148500
v -0.105000 0.003151 0.026244
v 0.105000 0.003151 0.105458
v -0.103865 0.003151 0.083812
v 0.105000 0.003151 0.148500
v 0.030156 0.003151 0.146525
v -0.102708 0.003151 0.144905
v 0.110509 0.004875 -0.066635
v -0.097843 0.004875 -0.143088
v 0.107798 0.007679 -0.140245
v -0.097843 0.004875 -0.092221
v -0.097843 0.004875 -0.017971
v 0.112157 0.004875 0.005412
v -0.097843 0.004875 0.153912
v 0.112157 0.004875 0.153912
v 0.102827 0.011510 -0.131100
v 0.104413 0.008241 -0.075591
v 0.031641 0.006840 -0.137672
v 0.103536 0.006840 -0.025481
v -0.034483 0.006840 -0.140294
v 0.097243 0.008135 0.161313
v -0.102637 0.006840 -0.142590
v -0.112638 0.006840 0.154242
v 0.099202 0.001117 0.134630
v 0.103401 0.001117 0.082193
v 0.035397 0.001117 0.139978
v 0.103830 0.001117 0.025973
v -0.058273 0.001117 0.141174
v -0.105000 0.001117 0.142358
v -0.105000 0.001117 -0.032386
v 0.105000 0.001117 -0.111600
v -0.103865 0.001117 -0.089954
v 0.105000 0.001117 -0.154642
v 0.030156 0.001117 -0.152667
v -0.102708 0.001117 -0.151047
v 0.099980 0.022994 -0.139753
v 0.104179 0.021092 -0.087317
v 0.036175 0.021092 -0.145102
v 0.104608 0.021092 -0.031097
v -0.057495 0.021092 -0.146298
v -0.104222 0.021092 -0.147482
v -0.104222 0.021092 0.027262
v 0.105778 0.021092 0.106476
v -0.103087 0.021092 0.084830
v 0.105778 0.021092 0.149518
v 0.030934 0.021092 0.147543
v -0.101929 0.021092 0.145923
v 0.117461 0.017069 -0.068822
v -0.090890 0.017069 -0.145276
v 0.114750 0.017069 -0.142433
v -0.090890 0.017069 -0.094409
v -0.090890 0.017069 -0.020159
v 0.119110 0.017069 0.003224
v -0.090890 0.017069 0.151725
v 0.119110 0.017069 0.151725
v 0.118567 0.021953 -0.142379
v 0.117178 0.019034 -0.086865
v 0.047836 0.019034 -0.152754
v 0.113619 0.019034 -0.036873
v -0.018053 0.019034 -0.158914
v 0.097329 0.019034 0.149316
v -0.085986 0.019034 -0.164857
v -0.111871 0.019034 0.131013
v 0.105095 0.015737 0.137181
v 0.109294 0.015737 0.084744
v 0.041290 0.015737 0.142529
v 0.109723 0.015737 0.028524
v -0.052380 0.015737 0.143726
v -0.099107 0.015737 0.144909
v -0.099107 0.015737 -0.029835
v 0.110893 0.015737 -0.109048
v -0.097972 0.015737 -0.087403
v 0.110893 0.015737 -0.152091
v 0.036049 0.015737 -0.150115
v -0.096815 0.015737 -0.148496
v 0.106013 0.010103 -0.138220
v 0.110213 0.009131 -0.085784
v 0.042209 0.009131 -0.143568
v 0.110642 0.009131 -0.029564
v -0.051462 0.009131 -0.144765
v -0.098188 0.009131 -0.145949
v -0.098188 0.009131 0.028796
v 0.111811 0.009132 0.108009
v -0.097054 0.009132 0.086363
v 0.111811 0.009132 0.151051
v 0.036968 0.009132 0.149076
v -0.095896 0.009132 0.147457
v 0.117237 0.013533 -0.060937
v -0.091114 0.013533 -0.137390
v 0.114526 0.015313 -0.134547
v -0.091114 0.013533 -0.086523
v -0.091114 0.013533 -0.012273
v 0.118886 0.013533 0.011110
v -0.091114 0.013533 0.159610
v 0.118886 0.015307 0.159610
v 0.106875 0.011033 -0.125455
v 0.112788 0.011033 -0.070239
v 0.035394 0.011033 -0.126452
v 0.115824 0.011033 -0.020213
v -0.030733 0.011033 -0.123906
v 0.124124 0.011033 0.166503
v -0.098859 0.011033 -0.120878
v -0.085669 0.011033 0.175829
v -0.102822 0.007597 -0.149695
v -0.106276 0.007597 -0.094270
v -0.031455 0.007597 -0.153865
v -0.107088 0.007597 -0.044159
v 0.034720 0.007597 -0.154259
v -0.107088 0.007597 0.142741
v 0.102912 0.007597 -0.154259
v 0.102912 0.007597 0.142741
v 0.099202 0.021719 -0.140771
v 0.103401 0.021719 -0.088335
v 0.035397 0.021719 -0.146120
v 0.103830 0.021719 -0.032115
v -0.058273 0.021719 -0.147316
v -0.105000 0.021719 -0.148500
v -0.105000 0.021719 0.026244
v 0.105000 0.021719 0.105458
v -0.103865 0.021719 0.083812
v 0.105000 0.021719 0.148500
v 0.030156 0.021719 0.146525
v -0.102708 0.021719 0.144905
v 0.110509 0.023442 -0.066635
v -0.097843 0.023442 -0.143088
v 0.107798 0.026246 -0.140245
v -0.097843 0.023442 -0.092221
v -0.097843 0.023442 -0.017971
v 0.112157 0.023442 0.005412
v -0.097843 0.023442 0.153912
v 0.112157 0.023442 0.153912
v 0.102827 0.030078 -0.131100
v 0.104413 0.026809 -0.075591
v 0.031641 0.025407 -0.137672
v 0.103536 0.025407 -0.025481
v -0.034483 0.025407 -0.140294
v 0.097243 0.026703 0.161313
v -0.102637 0.025407 -0.142590
v -0.112638 0.025407 0.154242
v 0.099202 0.019684 0.134630
v 0.103401 0.019684 0.082193
v 0.035397 0.019684 0.139978
v 0.103830 0.019684 0.025973
v -0.058273 0.019684 0.141174
v -0.105000 0.019684 0.142358
v -0.105000 0.019684 -0.032386
v 0.105000 0.019684 -0.111600
v -0.103865 0.019684 -0.089954
v 0.105000 0.019684 -0.154642
v 0.030156 0.019684 -0.152667
v -0.102708 0.019684 -0.151047
v 0.099980 0.041561 -0.139753
v 0.104179 0.039660 -0.087317
v 0.036175 0.039660 -0.145102
v 0.104608 0.039660 -0.031097
v -0.057495 0.039660 -0.146298
v -0.104222 0.039660 -0.147482
v -0.104222 0.039660 0.027262
v 0.105778 0.039660 0.106476
v -0.103087 0.039660 0.084830
v 0.105778 0.039660 0.149518
v 0.030934 0.039660 0.147543
v -0.101929 0.039660 0.145923
v 0.111235 0.035636 -0.061984
v -0.097116 0.035636 -0.138437
v 0.108525 0.035636 -0.135594
v -0.097116 0.035636 -0.087570
v -0.097116 0.035636 -0.013320
v 0.112884 0.035636 0.010063
v -0.097116 0.035636 0.158563
v 0.112884 0.035636 0.158563
v 0.118567 0.040520 -0.142379
v 0.117178 0.037602 -0.086865
v 0.047836 0.037602 -0.152754
v 0.113619 0.037602 -0.036873
v -0.018053 0.037602 -0.158914
v 0.097329 0.037602 0.149316
v -0.085986 0.037602 -0.164857
v -0.111871 0.037602 0.131013
v -0.100436 0.034304 -0.142211
v -0.104636 0.034304 -0.089775
v -0.036632 0.034304 -0.147560
v -0.105065 0.034304 -0.033555
v 0.057039 0.034304 -0.148756
v 0.103765 0.034304 -0.149940
v 0.103765 0.034304 0.024805
v -0.106235 0.034304 0.104018
v 0.102630 0.034304 0.082372
v -0.106235 0.034304 0.147060
v -0.031391 0.034304 0.145085
v 0.101473 0.034304 0.143466
v 0.106013 0.028671 -0.138220
v 0.110213 0.027699 -0.085784
v 0.042209 0.027699 -0.143568
v 0.110642 0.027699 -0.029564
v -0.051462 0.027699 -0.144765
v -0.098188 0.027699 -0.145949
v -0.098188 0.027699 0.028796
v 0.111811 0.027699 0.108009
v -0.097054 0.027699 0.086363
v 0.111811 0.027699 0.151051
v 0.036968 0.027699 0.149076
v -0.095896 0.027699 0.147457
v 0.122087 0.032100 -0.062289
v -0.086264 0.032100 -0.138742
v 0.119376 0.033880 -0.135899
v -0.086264 0.032100 -0.087875
v -0.086264 0.032100 -0.013625
v 0.123736 0.032100 0.009758
v -0.086264 0.032100 0.158258
v 0.123736 0.033875 0.158258
v 0.106875 0.029601 -0.125455
v 0.112788 0.029601 -0.070239
v 0.035394 0.029601 -0.126452
v 0.115824 0.029601 -0.020213
v -0.030733 0.029601 -0.123906
v 0.124124 0.029601 0.166503
v -0.098859 0.029601 -0.120878
v -0.085669 0.029601 0.175829
v 0.095810 0.026165 0.141466
v 0.099265 0.026165 0.086042
v 0.024443 0.026165 0.145636
v 0.100076 0.026165 0.035930
v -0.041731 0.026165 0.146030
v 0.100076 0.026165 -0.150970
v -0.109924 0.026165 0.146030
v -0.109924 0.026165 -0.150970
vn -0.0000 1.0000 -0.0000
vn -0.0054 0.9999 0.0146
vn -0.0142 0.9992 0.0386
vn -0.0031 1.0000 0.0084
vn -0.0709 0.9956 0.0607
vn -0.0182 0.9997 0.0147
vn -0.0502 0.9981 0.0363
vn -0.0040 1.0000 0.0003
vn 0.0009 1.0000 -0.0038
vn -0.0021 1.0000 -0.0025
vn -0.0023 1.0000 -0.0027
vn -0.0062 1.0000 -0.0002
vn -0.0000 -1.0000 -0.0000
vn -0.0330 0.9987 0.0389
vn -0.0067 0.9999 0.0079
vn -0.0085 0.9999 0.0100
vn -0.0487 0.9975 0.0512
vn -0.0097 0.9999 0.0102
vn -0.0132 0.9998 0.0139
vn -0.0169 0.9997 0.0199
vn -0.0034 1.0000 0.0040
vn -0.0043 1.0000 0.0051
vn -0.0034 1.0000 0.0093
vn -0.0090 0.9997 0.0245
vn -0.0020 1.0000 0.0053
vn -0.0026 1.0000 -0.0037
vn -0.0033 1.0000 -0.0047
vn -0.0085 0.9999 -0.0120
vt 0.178060 0.987247
vt 0.124152 0.991449
vt 0.181144 0.942808
vt 0.181299 0.895480
vt 0.045432 0.992539
vt 0.006202 0.993630
vt 0.005843 0.846911
vt 0.181996 0.779970
vt 0.006628 0.798459
vt 0.181944 0.743886
vt 0.119032 0.745544
vt 0.006957 0.746049
vt 0.363339 0.928415
vt 0.361183 0.990299
vt 0.188507 0.992889
vt 0.188418 0.950105
vt 0.188326 0.887764
vt 0.364614 0.867854
vt 0.188099 0.743448
vt 0.364418 0.743170
vt 0.545442 0.988073
vt 0.484616 0.990477
vt 0.547404 0.940399
vt 0.547873 0.898091
vt 0.428879 0.990625
vt 0.547752 0.741166
vt 0.371623 0.990668
vt 0.371432 0.741301
s 1
f 1/1/1 3/2/1 2/3/1
f 4/4/1 2/3/1 3/2/1
f 3/2/1 5/5/1 4/4/1
f 4/4/1 5/5/1 6/6/1
f 7/7/1 4/4/1 6/6/1
f 7/7/1 8/8/1 4/4/1
f 8/8/1 7/7/1 9/9/1
f 8/8/1 9/9/1 10/10/1
f 9/9/1 11/11/1 10/10/1
f 9/9/1 12/12/1 11/11/1
f 13/13/2 15/14/3 14/15/4
f 14/15/4 16/16/1 13/13/2
f 13/13/2 16/16/1 17/17/1
f 17/17/1 18/18/1 13/13/2
f 18/18/1 17/17/1 19/19/1
f 19/19/1 20/20/1 18/18/1
f 21/21/5 23/22/6 22/23/7
f 24/24/8 22/23/7 23/22/6
f 23/22/6 25/25/9 24/24/8
f 26/26/10 24/24/8 25/25/9
f 27/27/11 26/26/10 25/25/9
f 27/27/11 28/28/12 26/26/10
f 29/1/13 31/2/13 30/3/13
f 32/4/13 30/3/13 31/2/13
f 31/2/13 33/5/13 32/4/13
f 32/4/13 33/5/13 34/6/13
f 35/7/13 32/4/13 34/6/13
f 35/7/13 36/8/13 32/4/13
f 36/8/13 35/7/13 37/9/13
f 36/8/13 37/9/13 38/10/13
f 37/9/13 39/11/13 38/10/13
f 37/9/13 40/12/13 39/11/13
f 41/1/14 43/2/15 42/3/16
f 44/4/1 42/3/16 43/2/15
f 43/2/15 45/5/1 44/4/1
f 44/4/1 45/5/1 46/6/1
f 47/7/1 44/4/1 46/6/1
f 47/7/1 48/8/1 44/4/1
f 48/8/1 47/7/1 49/9/1
f 48/8/1 49/9/1 50/10/1
f 49/9/1 51/11/1 50/10/1
f 49/9/1 52/12/1 51/11/1
f 53/13/1 55/14/1 54/15/1
f 54/15/1 56/16/1 53/13/1
f 53/13/1 56/16/1 57/17/1
f 57/17/1 58/18/1 53/13/1
f 58/18/1 57/17/1 59/19/1
f 59/19/1 60/20/1 58/18/1
f 61/21/17 63/22/18 62/23/19
f 64/24/1 62/23/19 63/22/18
f 63/22/18 65/25/1 64/24/1
f 66/26/1 64/24/1 65/25/1
f 67/27/1 66/26/1 65/25/1
f 67/27/1 68/28/1 66/26/1
f 69/1/13 71/2/13 70/3/13
f 72/4/13 70/3/13 71/2/13
f 71/2/13 73/5/13 72/4/13
f 72/4/13 73/5/13 74/6/13
f 75/7/13 72/4/13 74/6/13
f 75/7/13 76/8/13 72/4/13
f 76/8/13 75/7/13 77/9/13
f 76/8/13 77/9/13 78/10/13
f 77/9/13 79/11/13 78/10/13
f 77/9/13 80/12/13 79/11/13
f 81/1/20 83/2/21 82/3/22
f 84/4/1 82/3/22 83/2/21
f 83/2/21 85/5/1 84/4/1
f 84/4/1 85/5/1 86/6/1
f 87/7/1 84/4/1 86/6/1
f 87/7/1 88/8/1 84/4/1
f 88/8/1 87/7/1 89/9/1
f 88/8/1 89/9/1 90/10/1
f 89/9/1 91/11/1 90/10/1
f 89/9/1 92/12/1 91/11/1
f 93/13/23 95/14/24 94/15/25
f 94/15/25 96/16/1 93/13/23
f 93/13/23 96/16/1 97/17/1
f 97/17/1 98/18/26 93/13/23
f 98/18/26 97/17/1 99/19/27
f 99/19/27 100/20/28 98/18/26
f 101/21/1 103/22/1 102/23/1
f 104/24/1 102/23/1 103/22/1
f 103/22/1 105/25/1 104/24/1
f 106/26/1 104/24/1 105/25/1
f 107/27/1 106/26/1 105/25/1
f 107/27/1 108/28/1 106/26/1
f 109/21/13 111/22/13 110/23/13
f 112/24/13 110/23/13 111/22/13
f 111/22/13 113/25/13 112/24/13
f 114/26/13 112/24/13 113/25/13
f 115/27/13 114/26/13 113/25/13
f 115/27/13 116/28/13 114/26/13
f 117/1/1 119/2/1 118/3/1
f 120/4/1 118/3/1 119/2/1
f 119/2/1 121/5/1 120/4/1
f 120/4/1 121/5/1 122/6/1
f 123/7/1 120/4/1 122/6/1
f 123/7/1 124/8/1 120/4/1
f 124/8/1 123/7/1 125/9/1
f 124/8/1 125/9/1 126/10/1
f 125/9/1 127/11/1 126/10/1
f 125/9/1 128/12/1 127/11/1
f 129/13/2 131/14/3 130/15/4
f 130/15/4 132/16/1 129/13/2
f 129/13/2 132/16/1 133/17/1
f 133/17/1 134/18/1 129/13/2
f 134/18/1 133/17/1 135/19/1
f 135/19/1 136/20/1 134/18/1
f 137/21/5 139/22/6 138/23/7
f 140/24/8 138/23/7 139/22/6
f 139/22/6 141/25/9 140/24/8
f 142/26/10 140/24/8 141/25/9
f 143/27/11 142/26/10 141/25/9
f 143/27/11 144/28/12 142/26/10
f 145/1/13 147/2/13 146/3/13
f 148/4/13 146/3/13 147/2/13
f 147/2/13 149/5/13 148/4/13
f 148/4/13 149/5/13 150/6/13
f 151/7/13 148/4/13 150/6/13
f 151/7/13 152/8/13 148/4/13
f 152/8/13 151/7/13 153/9/13
f 152/8/13 153/9/13 154/10/13
f 153/9/13 155/11/13 154/10/13
f 153/9/13 156/12/13 155/11/13
f 157/1/14 159/2/15 158/3/16
f 160/4/1 158/3/16 159/2/15
f 159/2/15 161/5/1 160/4/1
f 160/4/1 161/5/1 162/6/1
f 163/7/1 160/4/1 162/6/1
f 163/7/1 164/8/1 160/4/1
f 164/8/1 163/7/1 165/9/1
f 164/8/1 165/9/1 166/10/1
f 165/9/1 167/11/1 166/10/1
f 165/9/1 168/12/1 167/11/1
f 169/13/1 171/14/1 170/15/1
f 170/15/1 172/16/1 169/13/1
f 169/13/1 172/16/1 173/17/1
f 173/17/1 174/18/1 169/13/1
f 174/18/1 173/17/1 175/19/1
f 175/19/1 176/20/1 174/18/1
f 177/21/17 179/22/18 178/23/19
f 180/24/1 178/23/19 179/22/18
f 179/22/18 181/25/1 180/24/1
f 182/26/1 180/24/1 181/25/1
f 183/27/1 182/26/1 181/25/1
f 183/27/1 184/28/1 182/26/1
f 185/1/13 187/2/13 186/3/13
f 188/4/13 186/3/13 187/2/13
f 187/2/13 189/5/13 188/4/13
f 188/4/13 189/5/13 190/6/13
f 191/7/13 188/4/13 190/6/13
f 191/7/13 192/8/13 188/4/13
f 192/8/13 191/7/13 193/9/13
f 192/8/13 193/9/13 194/10/13
f 193/9/13 195/11/13 194/10/13
f 193/9/13 196/12/13 195/11/13
f 197/1/20 199/2/21 198/3/22
f 200/4/1 198/3/22 199/2/21
f 199/2/21 201/5/1 200/4/1
f 200/4/1 201/5/1 202/6/1
f 203/7/1 200/4/1 202/6/1
f 203/7/1 204/8/1 200/4/1
f 204/8/1 203/7/1 205/9/1
f 204/8/1 205/9/1 206/10/1
f 205/9/1 207/11/1 206/10/1
f 205/9/1 208/12/1 207/11/1
f 209/13/23 211/14/24 210/15/25
f 210/15/25 212/16/1 209/13/23
f 209/13/23 212/16/1 213/17/1
f 213/17/1 214/18/26 209/13/23
f 214/18/26 213/17/1 215/19/27
f 215/19/27 216/20/28 214/18/26
f 217/21/1 219/22/1 218/23/1
f 220/24/1 218/23/1 219/22/1
f 219/22/1 221/25/1 220/24/1
f 222/26/1 220/24/1 221/25/1
f 223/27/1 222/26/1 221/25/1
f 223/27/1 224/28/1 222/26/1
f 225/21/13 227/22/13 226/23/13
f 228/24/13 226/23/13 227/22/13
f 227/22/13 229/25/13 228/24/13
f 230/26/13 228/24/13 229/25/13
f 231/27/13 230/26/13 229/25/13
f 231/27/13 232/28/13 230/26/13
